<svg width="352" height="648" viewBox="0 0 352 648" fill="none" xmlns="http://www.w3.org/2000/svg">
<g opacity="0.5">
<mask id="mask0_97_2470" style="mask-type:alpha" maskUnits="userSpaceOnUse" x="0" y="0" width="352" height="648">
<rect width="352" height="648" rx="16" fill="#394EB4"/>
</mask>
<g mask="url(#mask0_97_2470)">
<g opacity="0.5">
<path fill-rule="evenodd" clip-rule="evenodd" d="M326.043 126.358C347.991 121.655 374.333 101.148 390.982 117.081C408.255 133.611 387.264 165.213 391.948 189.429C395.779 209.238 416.44 222.923 415.359 243.114C414.173 265.282 402.053 285.892 386.025 300.102C369.352 314.885 347.742 322.338 326.043 322.3C304.368 322.262 284.19 312.769 266.204 299.893C247.632 286.596 224.811 271.761 222.373 248.079C219.939 224.433 243.845 208.355 254.638 187.527C262.743 171.886 264.601 152.557 277.674 141.358C291.085 129.869 309.167 129.974 326.043 126.358Z" stroke="#9672FF"/>
<path fill-rule="evenodd" clip-rule="evenodd" d="M329.087 88.1816C360.26 81.4922 397.673 52.3194 421.32 74.9848C445.851 98.4987 416.039 143.455 422.691 177.903C428.133 206.081 457.477 225.549 455.942 254.271C454.257 285.806 437.044 315.125 414.279 335.339C390.598 356.367 359.906 366.971 329.087 366.917C298.302 366.863 269.643 353.358 244.099 335.041C217.721 316.126 185.308 295.023 181.846 261.334C178.389 227.697 212.342 204.825 227.671 175.196C239.182 152.946 241.821 125.451 260.389 109.519C279.437 93.1767 305.118 93.3252 329.087 88.1816Z" stroke="#9672FF"/>
<path fill-rule="evenodd" clip-rule="evenodd" d="M332.656 43.6427C374.644 34.6351 425.037 -4.6471 456.888 25.8727C489.93 57.535 449.775 118.07 458.735 164.455C466.064 202.398 505.589 228.612 503.522 267.288C501.252 309.751 478.067 349.229 447.404 376.449C415.508 404.764 374.167 419.042 332.656 418.969C291.191 418.896 252.588 400.712 218.182 376.047C182.653 350.578 138.994 322.162 134.331 276.798C129.674 231.506 175.407 200.707 196.054 160.811C211.56 130.851 215.114 93.8267 240.124 72.3748C265.78 50.3687 300.371 50.5687 332.656 43.6427Z" stroke="#9672FF"/>
<path fill-rule="evenodd" clip-rule="evenodd" d="M336.015 1.64871C388.182 -9.54457 450.792 -58.3584 490.364 -20.4331C531.416 18.9119 481.526 94.1359 492.659 151.776C501.765 198.926 550.871 231.501 548.303 279.561C545.483 332.328 516.677 381.385 478.581 415.21C438.952 450.395 387.59 468.137 336.015 468.047C284.498 467.957 236.537 445.36 193.79 414.71C149.648 383.061 95.4051 347.75 89.6109 291.378C83.8259 235.096 140.645 196.825 166.298 147.247C185.562 110.017 189.978 64.0098 221.051 37.3526C252.927 10.0069 295.904 10.2553 336.015 1.64871Z" stroke="#9672FF"/>
<path fill-rule="evenodd" clip-rule="evenodd" d="M339.689 -44.1626C402.989 -57.7403 478.961 -116.952 526.978 -70.9483C576.792 -23.222 516.254 68.026 529.762 137.944C540.812 195.138 600.399 234.652 597.282 292.95C593.861 356.957 558.907 416.464 512.681 457.494C464.595 500.175 402.27 521.696 339.689 521.587C277.178 521.477 218.981 494.067 167.111 456.888C113.548 418.497 47.7293 375.664 40.6985 307.284C33.6789 239.013 102.625 192.589 133.752 132.451C157.127 87.2904 162.486 31.4824 200.19 -0.853158C238.869 -34.0241 291.018 -33.7227 339.689 -44.1626Z" stroke="#9672FF"/>
<path fill-rule="evenodd" clip-rule="evenodd" d="M343.993 -97.6093C420.334 -113.969 511.959 -185.312 569.868 -129.883C629.945 -72.3784 556.935 37.5643 573.227 121.807C586.553 190.718 658.416 238.328 654.658 308.571C650.531 385.691 608.376 457.39 552.626 506.826C494.632 558.251 419.467 584.182 343.993 584.049C268.602 583.918 198.415 550.892 135.858 506.096C71.2593 459.84 -8.11983 408.231 -16.5992 325.842C-25.0651 243.583 58.0855 187.648 95.6262 115.189C123.817 60.7755 130.28 -6.46623 175.753 -45.4267C222.4 -85.3936 285.293 -85.0304 343.993 -97.6093Z" stroke="#9672FF"/>
<path fill-rule="evenodd" clip-rule="evenodd" d="M348.402 -152.329C438.103 -171.536 545.762 -255.299 613.805 -190.221C684.396 -122.705 598.609 6.37723 617.751 105.286C633.41 186.194 717.849 242.092 713.433 324.563C708.584 415.109 659.052 499.29 593.546 557.332C525.403 617.71 437.084 648.155 348.402 648C259.817 647.845 177.348 609.069 103.843 556.475C27.9399 502.166 -65.3306 441.573 -75.2938 344.841C-85.2412 248.262 12.4607 182.589 56.571 97.5155C89.6956 33.6293 97.2893 -45.3185 150.719 -91.0615C205.53 -137.986 279.43 -137.56 348.402 -152.329Z" stroke="#9672FF"/>
</g>
</g>
</g>
</svg>
