<svg width="1076" height="883" viewBox="0 0 1076 883" fill="none" xmlns="http://www.w3.org/2000/svg">
<g opacity="0.2">
<path fill-rule="evenodd" clip-rule="evenodd" d="M642.394 321.901C658.964 329.736 661.822 346.179 668.712 359.83C675.124 372.532 681.615 384.9 681.037 398.461C680.357 414.426 682.372 434.114 665.139 443.702C647.782 453.36 623.351 441.938 601.68 442.616C582.068 443.229 560.843 455.642 544.606 447.472C528.196 439.215 536.103 419.736 528.947 406.018C522.348 393.367 502.782 384.192 504.553 370.686C506.35 356.978 523.66 347.732 537.763 338.766C551.529 330.015 566.649 322.804 584.362 319.949C603.763 316.822 625.661 313.99 642.394 321.901Z" stroke="#BCC4DA"/>
<path fill-rule="evenodd" clip-rule="evenodd" d="M668.243 281.936C695.013 294.588 699.681 321.083 710.849 343.088C721.24 363.563 731.758 383.5 730.872 405.345C729.829 431.063 733.148 462.785 705.369 478.199C677.389 493.725 637.92 475.278 602.947 476.329C571.298 477.28 537.084 497.237 510.851 484.044C484.339 470.712 497.033 439.347 485.437 417.233C474.744 396.841 443.134 382.022 445.945 360.269C448.799 338.188 476.705 323.326 499.435 308.908C521.622 294.836 546 283.247 574.577 278.681C605.878 273.68 641.21 269.159 668.243 281.936Z" stroke="#BCC4DA"/>
<path fill-rule="evenodd" clip-rule="evenodd" d="M693.283 243.219C729.934 260.539 736.356 296.771 751.667 326.868C765.913 354.874 780.332 382.144 779.148 412.014C777.753 447.18 782.336 490.559 744.341 511.617C706.069 532.827 652.033 507.576 604.173 508.988C560.862 510.267 514.066 537.532 478.149 519.474C441.851 501.224 459.182 458.344 443.285 428.098C428.625 400.205 385.349 379.92 389.168 350.176C393.045 319.985 431.215 299.681 462.304 279.983C492.649 260.755 525.995 244.927 565.097 238.703C607.926 231.886 656.272 225.729 693.283 243.219Z" stroke="#BCC4DA"/>
<path fill-rule="evenodd" clip-rule="evenodd" d="M715.902 208.247C761.478 229.783 769.484 274.81 788.537 312.217C806.266 347.024 824.209 380.917 822.755 418.036C821.043 461.735 826.767 515.643 779.543 541.799C731.977 568.144 664.782 536.746 605.283 538.485C551.439 540.059 493.278 573.925 448.614 551.472C403.477 528.781 424.997 475.501 405.215 437.909C386.973 403.243 333.158 378.02 337.888 341.058C342.689 303.542 390.13 278.323 428.768 253.855C466.482 229.971 507.928 210.312 556.537 202.591C609.778 194.135 669.879 186.5 715.902 208.247Z" stroke="#BCC4DA"/>
<path fill-rule="evenodd" clip-rule="evenodd" d="M736.903 175.774C790.767 201.224 800.245 254.418 822.772 298.613C843.735 339.736 864.949 379.778 863.245 423.628C861.238 475.251 868.022 538.937 812.229 569.826C756.032 600.939 676.619 563.833 606.311 565.876C542.688 567.724 473.973 607.72 421.188 581.186C367.842 554.371 393.252 491.433 369.862 447.02C348.293 406.064 284.693 376.256 290.269 332.593C295.928 288.274 351.978 258.492 397.626 229.594C442.182 201.387 491.15 178.171 548.586 169.06C611.495 159.081 682.512 150.074 736.903 175.774Z" stroke="#BCC4DA"/>
<path fill-rule="evenodd" clip-rule="evenodd" d="M758.712 142.052C821.181 171.567 832.187 233.242 858.324 284.486C882.644 332.167 907.256 378.596 905.292 429.436C902.979 489.288 910.863 563.127 846.172 598.932C781.011 634.996 688.911 591.963 607.379 594.321C533.599 596.454 453.925 642.815 392.706 612.044C330.836 580.946 360.285 507.978 333.149 456.482C308.126 408.994 234.364 374.424 240.818 323.802C247.368 272.419 312.358 237.898 365.285 204.401C416.946 171.704 473.726 144.795 540.329 134.24C613.279 122.679 695.631 112.247 758.712 142.052Z" stroke="#BCC4DA"/>
<path fill-rule="evenodd" clip-rule="evenodd" d="M785.37 100.836C858.357 135.32 871.23 207.361 901.777 267.219C930.201 322.917 958.967 377.151 956.684 436.534C953.997 506.444 963.227 592.692 887.659 634.505C811.544 676.621 703.936 626.344 608.686 629.086C522.492 631.568 429.424 685.709 357.896 649.758C285.608 613.425 319.995 528.2 288.28 468.047C259.034 412.574 172.853 372.186 180.379 313.057C188.019 253.041 263.936 212.727 325.76 173.608C386.106 135.424 452.432 104.001 530.239 91.6812C615.461 78.1878 711.667 66.0144 785.37 100.836Z" stroke="#BCC4DA"/>
<path fill-rule="evenodd" clip-rule="evenodd" d="M814.449 55.8755C898.911 95.7796 913.821 179.129 949.18 248.385C982.081 312.827 1015.38 375.576 1012.75 444.279C1009.65 525.161 1020.35 624.947 932.917 673.314C844.851 722.031 720.325 663.851 610.111 667.014C510.374 669.875 402.695 732.504 319.921 690.902C236.268 648.86 276.04 550.262 239.33 480.664C205.478 416.483 105.748 369.745 114.445 301.338C123.273 231.902 211.11 185.27 282.64 140.018C352.46 95.8477 429.2 59.5 519.231 45.2554C617.839 29.6536 729.159 15.5802 814.449 55.8755Z" stroke="#BCC4DA"/>
<path fill-rule="evenodd" clip-rule="evenodd" d="M842.723 12.161C938.341 57.3348 955.231 151.678 995.268 230.071C1032.52 303.015 1070.22 374.043 1067.26 451.806C1063.76 543.356 1075.89 656.303 976.92 711.042C877.235 766.177 736.262 700.315 611.498 703.885C498.595 707.117 376.71 777.996 283.002 730.902C188.3 683.307 233.308 571.709 191.743 492.929C153.412 420.279 40.5093 367.37 50.3449 289.941C60.3282 211.349 159.754 158.574 240.72 107.359C319.751 57.3682 406.617 16.2328 508.53 0.116754C620.154 -17.5349 746.167 -33.4555 842.723 12.161Z" stroke="#BCC4DA"/>
<path fill-rule="evenodd" clip-rule="evenodd" d="M868.57 -27.8064C974.388 22.1854 993.089 126.58 1037.4 213.327C1078.64 294.044 1120.36 372.641 1117.09 458.689C1113.23 559.991 1126.66 684.972 1017.15 745.536C906.84 806.54 750.829 733.653 612.763 737.597C487.823 741.166 352.949 819.589 249.245 767.472C144.441 714.802 194.236 591.318 148.231 504.142C105.805 423.751 -19.1406 365.199 -8.26427 279.521C2.77536 192.557 112.797 134.165 202.391 77.4987C289.842 22.1871 385.966 -23.3257 498.744 -41.1528C622.268 -60.6786 761.715 -78.2881 868.57 -27.8064Z" stroke="#BCC4DA"/>
<path fill-rule="evenodd" clip-rule="evenodd" d="M896.035 -70.2685C1012.69 -15.1577 1033.31 99.9167 1082.17 195.54C1127.63 284.516 1173.64 371.154 1170.04 466.004C1165.8 577.669 1180.61 715.435 1059.89 782.19C938.298 849.429 766.309 769.077 614.11 773.418C476.379 777.346 327.705 863.785 213.381 806.332C97.8424 748.268 152.724 612.155 102.001 516.06C55.2254 427.443 -82.5165 362.895 -70.5345 268.454C-58.3726 172.594 62.9069 108.234 161.667 45.7756C258.066 -15.1896 364.026 -65.3533 488.348 -84.9985C624.515 -106.516 778.236 -125.92 896.035 -70.2685Z" stroke="#BCC4DA"/>
<path fill-rule="evenodd" clip-rule="evenodd" d="M925.923 -116.48C1054.37 -55.7981 1077.09 70.8985 1130.89 176.18C1180.96 274.145 1231.62 369.535 1227.66 473.963C1223 596.905 1239.32 748.585 1106.41 822.076C972.531 896.099 783.156 807.626 615.575 812.398C463.926 816.716 300.234 911.878 174.352 848.618C47.1327 784.685 107.55 634.828 51.693 529.026C0.183128 431.458 -151.484 360.385 -138.299 256.407C-124.915 150.867 8.6151 80.0131 117.351 11.2512C223.487 -55.8666 340.151 -111.092 477.035 -132.715C626.961 -156.399 796.216 -177.756 925.923 -116.48Z" stroke="#BCC4DA"/>
</g>
</svg>
