<svg width="387" height="120" viewBox="0 0 387 120" fill="none" xmlns="http://www.w3.org/2000/svg">
<mask id="mask0_1654_44756" style="mask-type:alpha" maskUnits="userSpaceOnUse" x="0" y="0" width="387" height="120">
<rect x="-0.5" y="0.5" width="386" height="119" rx="8.5" transform="matrix(1 0 0 -1 1 120)" fill="white" fill-opacity="0.6" stroke="url(#paint0_linear_1654_44756)"/>
</mask>
<g mask="url(#mask0_1654_44756)">
<g filter="url(#filter0_f_1654_44756)">
<mask id="mask1_1654_44756" style="mask-type:alpha" maskUnits="userSpaceOnUse" x="1" y="63" width="385" height="132">
<ellipse rx="192.5" ry="66" transform="matrix(1 0 0 -1 193.5 129)" fill="#FFE551"/>
</mask>
<g mask="url(#mask1_1654_44756)">
<rect width="385" height="118" rx="8" transform="matrix(1 0 0 -1 1 119)" fill="#AD2831"/>
</g>
</g>
</g>
<rect x="0.5" y="-0.5" width="384" height="117" rx="7.5" transform="matrix(1 0 0 -1 1 118)" stroke="url(#paint1_linear_1654_44756)"/>
<defs>
<filter id="filter0_f_1654_44756" x="-99" y="-37" width="585" height="256" filterUnits="userSpaceOnUse" color-interpolation-filters="sRGB">
<feFlood flood-opacity="0" result="BackgroundImageFix"/>
<feBlend mode="normal" in="SourceGraphic" in2="BackgroundImageFix" result="shape"/>
<feGaussianBlur stdDeviation="50" result="effect1_foregroundBlur_1654_44756"/>
</filter>
<linearGradient id="paint0_linear_1654_44756" x1="193" y1="118" x2="193" y2="-7.98727e-06" gradientUnits="userSpaceOnUse">
<stop stop-color="white"/>
<stop offset="1" stop-color="white" stop-opacity="0"/>
</linearGradient>
<linearGradient id="paint1_linear_1654_44756" x1="200.5" y1="118" x2="200.5" y2="2.40724e-06" gradientUnits="userSpaceOnUse">
<stop stop-color="#FFE551" stop-opacity="0"/>
<stop offset="1" stop-color="#AD2831"/>
</linearGradient>
</defs>
</svg>
