<svg width="584" height="181" viewBox="0 0 584 181" fill="none" xmlns="http://www.w3.org/2000/svg">
<rect x="1" y="0.5" width="180" height="180" rx="15.5" fill="#292929" stroke="url(#paint0_linear_1726_45524)"/>
<path d="M1.5 15.37C1.5 7.43367 7.93367 1 15.87 1H92.5V10.63C92.5 18.5663 86.0663 25 78.13 25H1.5V15.37Z" fill="#253F35"/>
<path d="M16.2615 19V9.2H14.8055V19H16.2615ZM19.7068 19V11.468L24.4388 19H26.0488V9.2H24.5928V16.746L19.8748 9.2H18.2508V19H19.7068ZM32.3799 19.112C34.6479 19.112 36.3979 17.768 36.6079 15.85H35.1379C34.9839 16.998 33.8219 17.824 32.3659 17.824C30.4619 17.824 29.0899 16.522 29.0899 14.1C29.0899 11.678 30.4619 10.376 32.3659 10.376C33.7939 10.376 34.9419 11.202 35.1099 12.35H36.6359C36.3699 10.432 34.6059 9.088 32.3799 9.088C29.8879 9.088 27.5919 10.74 27.5919 14.1C27.5919 17.46 29.8599 19.112 32.3799 19.112ZM44.2914 19V17.712H39.5174V9.2H38.0614V19H44.2914ZM48.6317 19.112C50.8857 19.112 52.3977 17.81 52.3977 15.57V9.2H50.9977V15.612C50.9977 17.012 50.0457 17.81 48.6317 17.81C47.2317 17.81 46.2797 17.012 46.2797 15.612V9.2H44.8797V15.57C44.8797 17.81 46.3917 19.112 48.6317 19.112ZM57.2179 19C59.9479 19 62.1599 17.292 62.1599 14.1C62.1599 10.908 59.9479 9.2 57.2179 9.2H54.2079V19H57.2179ZM55.6639 10.488H57.1339C58.9539 10.488 60.6619 11.51 60.6619 14.1C60.6619 16.69 58.9539 17.712 57.1339 17.712H55.6639V10.488ZM70.1361 19V17.712H65.1521V14.59H69.0581V13.302H65.1521V10.488H69.9821V9.2H63.6961V19H70.1361ZM74.7042 19C77.4342 19 79.6462 17.292 79.6462 14.1C79.6462 10.908 77.4342 9.2 74.7042 9.2H71.6942V19H74.7042ZM73.1502 10.488H74.6202C76.4402 10.488 78.1482 11.51 78.1482 14.1C78.1482 16.69 76.4402 17.712 74.6202 17.712H73.1502V10.488Z" fill="#13B272"/>
<rect x="55" y="39" width="72" height="72" rx="36" fill="#60422F"/>
<path d="M81.375 94.25C80.675 94.25 80.0625 93.9875 79.5375 93.4625C79.0125 92.9375 78.75 92.325 78.75 91.625V58.375C78.75 57.675 79.0125 57.0625 79.5375 56.5375C80.0625 56.0125 80.675 55.75 81.375 55.75H100.625C101.325 55.75 101.937 56.0125 102.462 56.5375C102.987 57.0625 103.25 57.675 103.25 58.375V91.625C103.25 92.325 102.987 92.9375 102.462 93.4625C101.937 93.9875 101.325 94.25 100.625 94.25H81.375ZM81.375 87.6875H100.625V62.3125H81.375V87.6875ZM81.375 90.3125V91.625H100.625V90.3125H81.375ZM81.375 59.6875H100.625V58.375H81.375V59.6875ZM81.375 58.375V59.6875V58.375ZM81.375 91.625V90.3125V91.625Z" fill="#FFBC8B"/>
<path d="M26.7435 139V131.576L29.7995 139H31.3995L34.4395 131.576V139H36.4235V127.8H33.9915L30.5995 136.072L27.2075 127.8H24.7595V139H26.7435ZM42.172 139.128C44.62 139.128 46.38 137.368 46.38 134.968C46.38 132.568 44.62 130.808 42.172 130.808C39.708 130.808 37.948 132.568 37.948 134.968C37.948 137.368 39.708 139.128 42.172 139.128ZM42.172 137.432C40.828 137.432 39.932 136.424 39.932 134.968C39.932 133.512 40.828 132.504 42.172 132.504C43.5 132.504 44.396 133.512 44.396 134.968C44.396 136.424 43.5 137.432 42.172 137.432ZM52.1081 139.128C54.5241 139.128 55.9481 137.432 55.9481 134.968C55.9481 132.504 54.5241 130.808 52.1401 130.808C51.1001 130.808 50.2361 131.256 49.7721 131.912V127.48H47.8201V139H49.7721V137.992C50.2361 138.696 51.1321 139.128 52.1081 139.128ZM51.8201 137.432C50.5081 137.432 49.6441 136.456 49.6441 134.968C49.6441 133.48 50.5081 132.504 51.8201 132.504C53.1321 132.504 53.9961 133.48 53.9961 134.968C53.9961 136.456 53.1321 137.432 51.8201 137.432ZM57.1903 129.672H59.3663V127.432H57.1903V129.672ZM59.2543 139V130.936H57.2863V139H59.2543ZM63.0846 139V127.48H61.1326V139H63.0846ZM70.5101 136.312C70.3021 137.08 69.6461 137.496 68.6381 137.496C67.3901 137.496 66.5581 136.664 66.4141 135.368H72.3661C72.3821 135.208 72.3981 134.968 72.3981 134.696C72.3981 132.776 71.1821 130.808 68.4781 130.808C65.8381 130.808 64.5261 132.808 64.5261 134.936C64.5261 137.048 65.9981 139.128 68.6381 139.128C70.6221 139.128 72.1261 138.024 72.4301 136.312H70.5101ZM68.4781 132.28C69.6461 132.28 70.3501 133.048 70.4301 134.072H66.4621C66.6701 132.856 67.3741 132.28 68.4781 132.28ZM85.591 136.008C85.511 134.984 85.015 134.152 84.247 133.672C85.175 133.192 85.751 132.408 85.751 131.256C85.751 129.224 84.375 127.8 82.039 127.8H77.447V139H79.575V134.792H81.991C82.823 134.792 83.415 135.4 83.495 136.248L83.767 139H85.863L85.591 136.008ZM81.943 129.576C83.191 129.576 83.703 130.36 83.703 131.256C83.703 132.152 83.191 132.968 81.943 132.968H79.575V129.576H81.943ZM92.8851 136.312C92.6771 137.08 92.0211 137.496 91.0131 137.496C89.7651 137.496 88.9331 136.664 88.7891 135.368H94.7411C94.7571 135.208 94.7731 134.968 94.7731 134.696C94.7731 132.776 93.5571 130.808 90.8531 130.808C88.2131 130.808 86.9011 132.808 86.9011 134.936C86.9011 137.048 88.3731 139.128 91.0131 139.128C92.9971 139.128 94.5011 138.024 94.8051 136.312H92.8851ZM90.8531 132.28C92.0211 132.28 92.7251 133.048 92.8051 134.072H88.8371C89.0451 132.856 89.7491 132.28 90.8531 132.28ZM98.9639 139.128C100.852 139.128 102.084 138.136 102.084 136.616C102.084 132.968 97.6039 134.888 97.6039 133.144C97.6039 132.6 98.0679 132.28 98.7719 132.28C99.3959 132.28 100.084 132.664 100.196 133.416H101.988C101.908 131.848 100.612 130.808 98.7239 130.808C97.0599 130.808 95.8279 131.8 95.8279 133.208C95.8279 136.616 100.244 134.904 100.244 136.696C100.244 137.176 99.7319 137.56 98.9639 137.56C98.0839 137.56 97.4919 137.08 97.4119 136.312H95.6199C95.7159 138.04 97.0119 139.128 98.9639 139.128ZM105.522 142.264V138.12C105.97 138.744 106.834 139.128 107.81 139.128C110.178 139.128 111.698 137.432 111.698 134.968C111.698 132.504 110.274 130.808 107.954 130.808C106.882 130.808 106.002 131.256 105.522 131.944V130.936H103.57V142.264H105.522ZM107.586 137.432C106.258 137.432 105.394 136.456 105.394 134.968C105.394 133.48 106.258 132.504 107.586 132.504C108.882 132.504 109.746 133.48 109.746 134.968C109.746 136.456 108.882 137.432 107.586 137.432ZM116.813 139.128C119.261 139.128 121.021 137.368 121.021 134.968C121.021 132.568 119.261 130.808 116.813 130.808C114.349 130.808 112.589 132.568 112.589 134.968C112.589 137.368 114.349 139.128 116.813 139.128ZM116.813 137.432C115.469 137.432 114.573 136.424 114.573 134.968C114.573 133.512 115.469 132.504 116.813 132.504C118.141 132.504 119.037 133.512 119.037 134.968C119.037 136.424 118.141 137.432 116.813 137.432ZM124.317 139V134.6C124.317 133.416 125.085 132.552 126.189 132.552C127.197 132.552 127.869 133.32 127.869 134.424V139H129.837V134.008C129.837 132.12 128.653 130.808 126.829 130.808C125.677 130.808 124.765 131.304 124.317 132.184V130.936H122.349V139H124.317ZM134.511 139.128C136.399 139.128 137.631 138.136 137.631 136.616C137.631 132.968 133.151 134.888 133.151 133.144C133.151 132.6 133.615 132.28 134.319 132.28C134.943 132.28 135.631 132.664 135.743 133.416H137.535C137.455 131.848 136.159 130.808 134.271 130.808C132.607 130.808 131.375 131.8 131.375 133.208C131.375 136.616 135.791 134.904 135.791 136.696C135.791 137.176 135.279 137.56 134.511 137.56C133.631 137.56 133.039 137.08 132.959 136.312H131.167C131.263 138.04 132.559 139.128 134.511 139.128ZM138.909 129.672H141.085V127.432H138.909V129.672ZM140.973 139V130.936H139.005V139H140.973ZM146.771 139L149.731 130.936H147.715L145.859 136.504L143.987 130.936H141.987L144.931 139H146.771ZM155.948 136.312C155.74 137.08 155.084 137.496 154.076 137.496C152.828 137.496 151.996 136.664 151.852 135.368H157.804C157.82 135.208 157.836 134.968 157.836 134.696C157.836 132.776 156.62 130.808 153.916 130.808C151.276 130.808 149.964 132.808 149.964 134.936C149.964 137.048 151.436 139.128 154.076 139.128C156.06 139.128 157.564 138.024 157.868 136.312H155.948ZM153.916 132.28C155.084 132.28 155.788 133.048 155.868 134.072H151.9C152.108 132.856 152.812 132.28 153.916 132.28Z" fill="#F8FAFF"/>
<rect x="202" y="0.5" width="180" height="180" rx="15.5" fill="#292929" stroke="url(#paint1_linear_1726_45524)"/>
<path d="M202.5 15.37C202.5 7.43367 208.934 1 216.87 1H293.5V10.63C293.5 18.5663 287.066 25 279.13 25H202.5V15.37Z" fill="#253F35"/>
<path d="M217.262 19V9.2H215.806V19H217.262ZM220.707 19V11.468L225.439 19H227.049V9.2H225.593V16.746L220.875 9.2H219.251V19H220.707ZM233.38 19.112C235.648 19.112 237.398 17.768 237.608 15.85H236.138C235.984 16.998 234.822 17.824 233.366 17.824C231.462 17.824 230.09 16.522 230.09 14.1C230.09 11.678 231.462 10.376 233.366 10.376C234.794 10.376 235.942 11.202 236.11 12.35H237.636C237.37 10.432 235.606 9.088 233.38 9.088C230.888 9.088 228.592 10.74 228.592 14.1C228.592 17.46 230.86 19.112 233.38 19.112ZM245.291 19V17.712H240.517V9.2H239.061V19H245.291ZM249.632 19.112C251.886 19.112 253.398 17.81 253.398 15.57V9.2H251.998V15.612C251.998 17.012 251.046 17.81 249.632 17.81C248.232 17.81 247.28 17.012 247.28 15.612V9.2H245.88V15.57C245.88 17.81 247.392 19.112 249.632 19.112ZM258.218 19C260.948 19 263.16 17.292 263.16 14.1C263.16 10.908 260.948 9.2 258.218 9.2H255.208V19H258.218ZM256.664 10.488H258.134C259.954 10.488 261.662 11.51 261.662 14.1C261.662 16.69 259.954 17.712 258.134 17.712H256.664V10.488ZM271.136 19V17.712H266.152V14.59H270.058V13.302H266.152V10.488H270.982V9.2H264.696V19H271.136ZM275.704 19C278.434 19 280.646 17.292 280.646 14.1C280.646 10.908 278.434 9.2 275.704 9.2H272.694V19H275.704ZM274.15 10.488H275.62C277.44 10.488 279.148 11.51 279.148 14.1C279.148 16.69 277.44 17.712 275.62 17.712H274.15V10.488Z" fill="#13B272"/>
<rect x="256" y="39" width="72" height="72" rx="36" fill="#114633"/>
<path d="M282.363 89.5755C281.797 89.5755 281.301 89.363 280.876 88.938C280.451 88.513 280.238 88.0172 280.238 87.4505V63.3672C280.238 62.8005 280.451 62.3047 280.876 61.8797C281.301 61.4547 281.797 61.2422 282.363 61.2422H293.52C293.803 61.2422 294.08 61.3012 294.352 61.4193C294.623 61.5373 294.854 61.6908 295.042 61.8797L302.267 69.1047C302.456 69.2936 302.61 69.5238 302.728 69.7953C302.846 70.0668 302.905 70.3443 302.905 70.6276V79.3047H300.78V71.1589H294.051C293.744 71.1589 293.49 71.0585 293.289 70.8578C293.089 70.6571 292.988 70.4033 292.988 70.0964V63.3672H282.363V87.4505H296.884V89.5755H282.363Z" fill="#46D39A"/>
<path d="M303.436 83.5547L299.682 87.3089C299.469 87.5214 299.363 87.7752 299.363 88.0703C299.363 88.3655 299.469 88.6193 299.682 88.8318C299.894 89.0443 300.142 89.1505 300.426 89.1505C300.709 89.1505 300.957 89.0443 301.169 88.8318L304.959 85.0422L304.959 88.4422C304.959 88.7491 305.059 89.003 305.26 89.2036C305.461 89.4043 305.715 89.5047 306.021 89.5047C306.328 89.5047 306.582 89.4043 306.783 89.2036C306.984 89.003 307.084 88.7491 307.084 88.4422L307.084 82.4922C307.084 82.1852 306.984 81.9314 306.783 81.7307C306.582 81.53 306.328 81.4297 306.021 81.4297L300.071 81.4297C299.765 81.4297 299.511 81.53 299.31 81.7307C299.109 81.9314 299.009 82.1852 299.009 82.4922C299.009 82.7991 299.109 83.053 299.31 83.2536C299.511 83.4543 299.765 83.5547 300.071 83.5547L303.436 83.5547Z" fill="#46D39A"/>
<path d="M252.707 139V134.296H256.995V132.472H252.707V129.624H258.051V127.8H250.595V139H252.707ZM259.448 129.672H261.624V127.432H259.448V129.672ZM261.512 139V130.936H259.544V139H261.512ZM265.342 139V127.48H263.39V139H265.342ZM272.768 136.312C272.56 137.08 271.904 137.496 270.896 137.496C269.648 137.496 268.816 136.664 268.672 135.368H274.624C274.64 135.208 274.656 134.968 274.656 134.696C274.656 132.776 273.44 130.808 270.736 130.808C268.096 130.808 266.784 132.808 266.784 134.936C266.784 137.048 268.256 139.128 270.896 139.128C272.88 139.128 274.384 138.024 274.688 136.312H272.768ZM270.736 132.28C271.904 132.28 272.608 133.048 272.688 134.072H268.72C268.928 132.856 269.632 132.28 270.736 132.28ZM283.385 139.128C285.849 139.128 287.561 137.864 287.561 135.784C287.561 131.416 281.465 133.272 281.465 130.792C281.465 130.008 282.153 129.496 283.257 129.496C284.441 129.496 285.209 130.152 285.305 131.128H287.321C287.225 129.032 285.625 127.672 283.257 127.672C280.985 127.672 279.401 128.952 279.401 130.792C279.401 135.08 285.417 133.416 285.417 135.816C285.417 136.808 284.585 137.288 283.385 137.288C282.041 137.288 281.209 136.488 281.097 135.24H279.065C279.177 137.592 280.841 139.128 283.385 139.128ZM290.952 139V134.6C290.952 133.416 291.736 132.552 292.824 132.552C293.832 132.552 294.52 133.32 294.52 134.424V139H296.472V134.008C296.472 132.12 295.288 130.808 293.48 130.808C292.328 130.808 291.4 131.304 290.952 132.184V127.48H289V139H290.952ZM301.449 130.808C299.353 130.808 297.993 132.056 297.897 133.656H299.657C299.689 132.936 300.313 132.28 301.353 132.28C302.393 132.28 303.001 132.84 303.001 133.624C303.001 133.944 302.809 134.168 302.409 134.168H300.921C299.113 134.168 297.897 135.144 297.897 136.712C297.897 138.104 298.985 139.128 300.585 139.128C301.737 139.128 302.665 138.6 303.001 137.8V139H304.937V133.816C304.937 131.992 303.497 130.808 301.449 130.808ZM301.049 137.672C300.313 137.672 299.801 137.256 299.801 136.632C299.801 135.928 300.361 135.464 301.193 135.464H303.001V135.592C303.001 136.808 302.281 137.672 301.049 137.672ZM311.551 130.936H310.607C309.567 130.936 308.943 131.336 308.543 132.36V130.936H306.575V139H308.543V135.192C308.543 133.656 309.039 132.584 310.287 132.584H311.551V130.936ZM312.589 129.672H314.765V127.432H312.589V129.672ZM314.653 139V130.936H312.685V139H314.653ZM318.387 139V134.6C318.387 133.416 319.155 132.552 320.259 132.552C321.267 132.552 321.939 133.32 321.939 134.424V139H323.907V134.008C323.907 132.12 322.723 130.808 320.899 130.808C319.747 130.808 318.835 131.304 318.387 132.184V130.936H316.419V139H318.387ZM331.509 131.848C331.045 131.224 330.165 130.808 329.157 130.808C326.757 130.808 325.349 132.504 325.349 134.968C325.349 137.432 326.757 139.128 329.189 139.128C330.197 139.128 331.125 138.728 331.525 138.104V139.256C331.525 140.104 330.965 140.696 330.181 140.696H326.469V142.264H330.453C332.261 142.264 333.477 141.128 333.477 139.448V130.936H331.509V131.848ZM329.461 137.432C328.149 137.432 327.301 136.456 327.301 134.968C327.301 133.48 328.149 132.504 329.461 132.504C330.789 132.504 331.653 133.48 331.653 134.968C331.653 136.456 330.789 137.432 329.461 137.432Z" fill="#F8FAFF"/>
<rect x="403" y="0.5" width="180" height="180" rx="15.5" fill="#292929" stroke="url(#paint2_linear_1726_45524)"/>
<path d="M403.5 15.37C403.5 7.43367 409.934 1 417.87 1H494.5V10.63C494.5 18.5663 488.066 25 480.13 25H403.5V15.37Z" fill="#544F31"/>
<path d="M432.131 19L428.281 9.2H426.937L423.087 19H424.585L425.523 16.508H429.681L430.619 19H432.131ZM427.609 11.02L429.205 15.234H426.013L427.609 11.02ZM436.181 19C438.911 19 441.123 17.292 441.123 14.1C441.123 10.908 438.911 9.2 436.181 9.2H433.171V19H436.181ZM434.627 10.488H436.097C437.917 10.488 439.625 11.51 439.625 14.1C439.625 16.69 437.917 17.712 436.097 17.712H434.627V10.488ZM445.669 19C448.399 19 450.611 17.292 450.611 14.1C450.611 10.908 448.399 9.2 445.669 9.2H442.659V19H445.669ZM444.115 10.488H445.585C447.405 10.488 449.113 11.51 449.113 14.1C449.113 16.69 447.405 17.712 445.585 17.712H444.115V10.488ZM459.798 19.112C462.584 19.112 464.656 16.984 464.656 14.1C464.656 11.216 462.584 9.088 459.798 9.088C456.998 9.088 454.926 11.216 454.926 14.1C454.926 16.984 456.998 19.112 459.798 19.112ZM459.798 17.824C457.852 17.824 456.41 16.242 456.41 14.1C456.41 11.958 457.852 10.376 459.798 10.376C461.744 10.376 463.172 11.958 463.172 14.1C463.172 16.242 461.744 17.824 459.798 17.824ZM467.672 19V11.468L472.404 19H474.014V9.2H472.558V16.746L467.84 9.2H466.216V19H467.672Z" fill="#FFE551"/>
<rect x="457" y="39" width="72" height="72" rx="36" fill="#542C2F"/>
<path d="M491.031 84.0125H504.2C504.579 84.0125 504.893 83.8885 505.141 83.6406C505.389 83.3927 505.512 83.0792 505.512 82.7V74.0375C505.512 73.6583 505.389 73.3448 505.141 73.0969C504.893 72.849 504.579 72.725 504.2 72.725H491.031C490.652 72.725 490.339 72.849 490.091 73.0969C489.843 73.3448 489.719 73.6583 489.719 74.0375V82.7C489.719 83.0792 489.843 83.3927 490.091 83.6406C490.339 83.8885 490.652 84.0125 491.031 84.0125ZM478.125 89C477.425 89 476.813 88.7375 476.288 88.2125C475.763 87.6875 475.5 87.075 475.5 86.375V63.625C475.5 62.925 475.763 62.3125 476.288 61.7875C476.813 61.2625 477.425 61 478.125 61H507.875C508.604 61 509.224 61.2625 509.734 61.7875C510.245 62.3125 510.5 62.925 510.5 63.625V86.375C510.5 87.075 510.245 87.6875 509.734 88.2125C509.224 88.7375 508.604 89 507.875 89H478.125ZM478.125 86.375V63.625V86.375ZM478.125 86.375H507.875V63.625H478.125V86.375Z" fill="#F5808B"/>
<path d="M455.11 139L457.494 131.08L459.878 139H461.958L465.302 127.8H463.174L460.838 135.88L458.39 127.8H456.582L454.15 135.88L451.83 127.8H449.686L453.046 139H455.11ZM468.53 139V134.6C468.53 133.416 469.314 132.552 470.402 132.552C471.41 132.552 472.098 133.32 472.098 134.424V139H474.05V134.008C474.05 132.12 472.866 130.808 471.058 130.808C469.906 130.808 468.978 131.304 468.53 132.184V127.48H466.578V139H468.53ZM475.714 129.672H477.89V127.432H475.714V129.672ZM477.778 139V130.936H475.81V139H477.778ZM480.536 130.936H478.952V132.584H480.536V136.184C480.536 137.976 481.688 139 483.448 139H484.744V137.224H483.672C482.936 137.224 482.504 136.808 482.504 135.992V132.584H484.744V130.936H482.504V128.504H480.536V130.936ZM491.393 136.312C491.185 137.08 490.529 137.496 489.521 137.496C488.273 137.496 487.441 136.664 487.297 135.368H493.249C493.265 135.208 493.281 134.968 493.281 134.696C493.281 132.776 492.065 130.808 489.361 130.808C486.721 130.808 485.409 132.808 485.409 134.936C485.409 137.048 486.881 139.128 489.521 139.128C491.505 139.128 493.009 138.024 493.313 136.312H491.393ZM489.361 132.28C490.529 132.28 491.233 133.048 491.313 134.072H487.345C487.553 132.856 488.257 132.28 489.361 132.28ZM505.69 139V137.16H500.458V127.8H498.33V139H505.69ZM510.043 130.808C507.947 130.808 506.587 132.056 506.491 133.656H508.251C508.283 132.936 508.907 132.28 509.947 132.28C510.987 132.28 511.595 132.84 511.595 133.624C511.595 133.944 511.403 134.168 511.003 134.168H509.515C507.707 134.168 506.491 135.144 506.491 136.712C506.491 138.104 507.579 139.128 509.179 139.128C510.331 139.128 511.259 138.6 511.595 137.8V139H513.531V133.816C513.531 131.992 512.091 130.808 510.043 130.808ZM509.643 137.672C508.907 137.672 508.395 137.256 508.395 136.632C508.395 135.928 508.955 135.464 509.787 135.464H511.595V135.592C511.595 136.808 510.875 137.672 509.643 137.672ZM519.569 139.128C521.985 139.128 523.409 137.432 523.409 134.968C523.409 132.504 521.985 130.808 519.601 130.808C518.561 130.808 517.697 131.256 517.233 131.912V127.48H515.281V139H517.233V137.992C517.697 138.696 518.593 139.128 519.569 139.128ZM519.281 137.432C517.969 137.432 517.105 136.456 517.105 134.968C517.105 133.48 517.969 132.504 519.281 132.504C520.593 132.504 521.457 133.48 521.457 134.968C521.457 136.456 520.593 137.432 519.281 137.432ZM530.299 136.312C530.091 137.08 529.435 137.496 528.427 137.496C527.179 137.496 526.347 136.664 526.203 135.368H532.155C532.171 135.208 532.187 134.968 532.187 134.696C532.187 132.776 530.971 130.808 528.267 130.808C525.627 130.808 524.315 132.808 524.315 134.936C524.315 137.048 525.787 139.128 528.427 139.128C530.411 139.128 531.915 138.024 532.219 136.312H530.299ZM528.267 132.28C529.435 132.28 530.139 133.048 530.219 134.072H526.251C526.459 132.856 527.163 132.28 528.267 132.28ZM535.608 139V127.48H533.656V139H535.608Z" fill="#F8FAFF"/>
<defs>
<linearGradient id="paint0_linear_1726_45524" x1="91" y1="0" x2="91" y2="181" gradientUnits="userSpaceOnUse">
<stop stop-color="#13B272"/>
<stop offset="1" stop-color="#13B272" stop-opacity="0"/>
</linearGradient>
<linearGradient id="paint1_linear_1726_45524" x1="292" y1="0" x2="292" y2="181" gradientUnits="userSpaceOnUse">
<stop stop-color="#13B272"/>
<stop offset="1" stop-color="#13B272" stop-opacity="0"/>
</linearGradient>
<linearGradient id="paint2_linear_1726_45524" x1="493" y1="0" x2="493" y2="181" gradientUnits="userSpaceOnUse">
<stop stop-color="#FFE551"/>
<stop offset="1" stop-color="#292929" stop-opacity="0"/>
</linearGradient>
</defs>
</svg>
