<svg width="761" height="512" viewBox="0 0 761 512" fill="none" xmlns="http://www.w3.org/2000/svg">
<g opacity="0.2">
<path fill-rule="evenodd" clip-rule="evenodd" d="M763.567 -0.568957C780.288 3.14852 789.32 20.4964 800.507 33.5483C810.917 45.6929 821.256 57.4436 826.308 72.6284C832.256 90.5051 841.922 111.699 831.757 127.467C821.519 143.349 796.918 138.011 779.499 145.242C763.735 151.786 751.461 171.875 734.875 167.686C718.112 163.453 716.633 139.525 705.202 126.478C694.66 114.447 674.946 110.141 670.89 94.6607C666.773 78.9479 677.141 63.5354 685.004 49.3922C692.679 35.5871 702.087 23.0826 715.387 14.6247C729.954 5.36082 746.681 -4.32287 763.567 -0.568957Z" stroke="#7B88A8"/>
<path fill-rule="evenodd" clip-rule="evenodd" d="M768.395 -52.5447C795.407 -46.5439 810.012 -18.6101 828.095 2.4105C844.921 21.97 861.63 40.8954 869.806 65.3433C879.431 94.1252 895.064 128.25 878.661 153.621C862.14 179.177 822.398 170.559 794.27 182.182C768.815 192.7 749.008 225.025 722.214 218.265C695.135 211.434 692.723 172.916 674.246 151.904C657.208 132.527 625.361 125.575 618.795 100.653C612.13 75.3557 628.861 50.5566 641.548 27.7984C653.931 5.58426 669.115 -14.5347 690.589 -28.136C714.109 -43.0333 741.117 -58.6043 768.395 -52.5447Z" stroke="#7B88A8"/>
<path fill-rule="evenodd" clip-rule="evenodd" d="M773.063 -102.893C810.045 -94.68 830.048 -56.491 854.811 -27.7506C877.852 -1.00791 900.734 24.868 911.936 58.2894C925.122 97.6358 946.536 144.287 924.09 178.962C901.482 213.888 847.073 202.094 808.57 217.971C773.727 232.339 746.623 276.517 709.94 267.267C672.867 257.919 669.551 205.267 644.249 176.538C620.917 150.045 577.317 140.53 568.318 106.461C559.185 71.8793 582.081 37.9871 599.44 6.88295C616.385 -23.4775 637.164 -50.9729 666.557 -69.5568C698.75 -89.9116 735.718 -111.186 773.063 -102.893Z" stroke="#7B88A8"/>
<path fill-rule="evenodd" clip-rule="evenodd" d="M777.291 -148.372C823.277 -138.161 848.158 -90.7094 878.954 -54.9963C907.609 -21.7655 936.066 10.3882 950 51.9148C966.404 100.803 993.039 158.77 965.135 201.848C937.028 245.237 869.372 230.574 821.498 250.293C778.175 268.138 744.481 323.023 698.866 311.524C652.766 299.903 648.633 234.484 617.167 198.785C588.15 165.864 533.934 154.035 522.739 111.703C511.376 68.736 539.84 26.6306 561.42 -12.0117C582.485 -49.7301 608.318 -83.8881 644.863 -106.973C684.89 -132.257 730.854 -158.682 777.291 -148.372Z" stroke="#7B88A8"/>
<path fill-rule="evenodd" clip-rule="evenodd" d="M781.209 -190.6C835.557 -178.534 864.965 -122.481 901.364 -80.2936C935.232 -41.0382 968.866 -3.05506 985.337 45.9978C1004.73 103.747 1036.21 172.22 1003.24 223.1C970.028 274.35 890.07 257.022 833.495 280.309C782.298 301.383 742.484 366.209 688.575 352.621C634.093 338.89 629.201 261.616 592.011 219.445C557.715 180.556 493.642 166.578 480.407 116.574C466.974 65.8195 500.607 16.0875 526.107 -29.5546C550.997 -74.1053 581.523 -114.45 624.709 -141.713C672.011 -171.575 726.328 -202.784 781.209 -190.6Z" stroke="#7B88A8"/>
<path fill-rule="evenodd" clip-rule="evenodd" d="M785.279 -234.454C848.31 -220.462 882.421 -155.477 924.637 -106.566C963.919 -61.054 1002.93 -17.0173 1022.04 39.8513C1044.53 106.802 1081.05 186.185 1042.81 245.169C1004.3 304.58 911.566 284.485 845.954 311.477C786.58 335.904 740.411 411.054 677.889 395.298C614.703 379.374 609.024 289.79 565.889 240.898C526.111 195.81 451.801 179.6 436.448 121.63C420.865 62.7889 459.868 5.13701 489.438 -47.774C518.3 -99.4199 553.7 -146.189 603.783 -177.793C658.638 -212.407 721.63 -248.583 785.279 -234.454Z" stroke="#7B88A8"/>
<path fill-rule="evenodd" clip-rule="evenodd" d="M790.255 -288.051C863.899 -271.705 903.757 -195.803 953.084 -138.674C998.982 -85.5157 1044.56 -34.0801 1066.89 32.3411C1093.18 110.537 1135.85 203.256 1091.18 272.143C1046.19 341.529 937.84 318.053 861.184 349.574C791.816 378.099 737.88 465.867 664.83 447.46C591.005 428.857 584.364 324.227 533.964 267.12C487.486 214.457 400.664 195.519 382.723 127.812C364.512 59.0869 410.077 -8.24479 444.621 -70.0401C478.339 -130.358 519.695 -184.98 578.207 -221.887C642.296 -262.311 715.89 -304.559 790.255 -288.051Z" stroke="#7B88A8"/>
<path fill-rule="evenodd" clip-rule="evenodd" d="M795.685 -346.523C880.906 -327.607 927.034 -239.797 984.118 -173.702C1037.23 -112.202 1089.98 -52.6951 1115.82 24.147C1146.25 114.612 1195.63 221.878 1143.94 301.569C1091.88 381.837 966.503 354.672 877.799 391.133C797.529 424.128 735.119 525.662 650.586 504.363C565.154 482.838 557.463 361.794 499.137 295.725C445.35 234.798 344.88 212.884 324.114 134.554C303.036 55.0473 355.76 -22.8442 395.731 -94.3315C434.746 -164.11 482.599 -227.298 550.308 -269.991C624.468 -316.753 709.629 -365.624 795.685 -346.523Z" stroke="#7B88A8"/>
<path fill-rule="evenodd" clip-rule="evenodd" d="M800.964 -403.37C897.441 -381.957 949.665 -282.568 1014.29 -207.758C1074.42 -138.148 1134.14 -70.7937 1163.4 16.1799C1197.84 118.572 1253.75 239.982 1195.24 330.177C1136.31 421.025 994.371 390.272 893.954 431.537C803.083 468.879 732.435 583.796 636.737 559.685C540.022 535.318 531.31 398.316 465.278 323.535C404.385 254.574 290.645 229.766 267.133 141.109C243.269 51.1193 302.953 -37.0387 348.199 -117.949C392.364 -196.924 446.535 -268.441 523.184 -316.76C607.136 -369.683 703.542 -424.993 800.964 -403.37Z" stroke="#7B88A8"/>
<path fill-rule="evenodd" clip-rule="evenodd" d="M805.784 -455.343C912.552 -431.647 970.349 -321.672 1041.87 -238.893C1108.42 -161.868 1174.51 -87.3389 1206.89 8.89773C1245.01 122.195 1306.89 256.536 1242.14 356.334C1176.92 456.855 1019.84 422.824 908.717 468.48C808.155 509.796 729.975 636.948 624.069 610.267C517.037 583.302 507.392 431.71 434.315 348.963C366.925 272.656 241.052 245.203 215.03 147.103C188.618 47.53 254.665 -50.0145 304.736 -139.54C353.609 -226.924 413.555 -306.055 498.378 -359.517C591.283 -418.074 697.971 -479.271 805.784 -455.343Z" stroke="#7B88A8"/>
<path fill-rule="evenodd" clip-rule="evenodd" d="M810.913 -510.566C928.615 -484.443 992.333 -363.221 1071.18 -271.975C1144.55 -187.072 1217.41 -104.92 1253.1 1.15902C1295.13 126.043 1363.35 274.123 1291.97 384.125C1220.08 494.924 1046.92 457.408 924.41 507.73C813.551 553.268 727.368 693.421 610.616 664.009C492.624 634.284 481.987 467.19 401.424 375.979C327.131 291.867 188.367 261.604 159.678 153.471C130.558 43.7149 203.367 -63.8027 258.562 -162.481C312.438 -258.801 378.522 -346.022 472.029 -404.949C574.447 -469.491 692.058 -536.944 810.913 -510.566Z" stroke="#7B88A8"/>
<path fill-rule="evenodd" clip-rule="evenodd" d="M816.491 -570.661C946.092 -541.898 1016.25 -408.436 1103.07 -307.977C1183.86 -214.5 1264.09 -124.052 1303.39 -7.26269C1349.67 130.231 1424.79 293.263 1346.2 414.368C1267.04 536.352 1076.37 495.044 941.485 550.444C819.42 600.576 724.529 754.877 595.973 722.492C466.052 689.764 454.336 505.8 365.628 405.379C283.823 312.773 131.031 279.451 99.439 160.401C67.3727 39.5631 147.539 -78.8077 208.312 -187.448C267.632 -293.49 340.393 -389.515 443.352 -454.389C556.122 -525.445 685.621 -599.705 816.491 -570.661Z" stroke="#7B88A8"/>
</g>
</svg>
