<svg width="1276" height="442" viewBox="0 0 1276 442" fill="none" xmlns="http://www.w3.org/2000/svg">
<path fill-rule="evenodd" clip-rule="evenodd" d="M610.651 431.423C625.405 440.832 627.949 460.579 634.084 476.974C639.793 492.229 645.572 507.082 645.058 523.368C644.452 542.54 646.246 566.186 630.903 577.701C615.449 589.299 593.697 575.582 574.401 576.396C556.94 577.132 538.042 592.039 523.585 582.227C508.975 572.311 516.014 548.918 509.643 532.443C503.768 517.251 486.347 506.231 487.923 490.012C489.523 473.549 504.936 462.445 517.493 451.677C529.749 441.167 543.211 432.507 558.982 429.079C576.256 425.323 595.753 421.922 610.651 431.423Z" stroke="#89AD60" stroke-opacity="0.23"/>
<path fill-rule="evenodd" clip-rule="evenodd" d="M633.663 383.428C657.498 398.623 661.655 430.441 671.598 456.869C680.85 481.459 690.214 505.402 689.425 531.637C688.497 562.522 691.452 600.619 666.719 619.13C641.806 637.776 606.665 615.623 575.526 616.885C547.347 618.027 516.884 641.994 493.527 626.151C469.922 610.138 481.224 572.471 470.9 545.914C461.379 521.423 433.235 503.627 435.738 477.502C438.279 450.985 463.125 433.135 483.363 415.821C503.118 398.92 524.823 385.003 550.267 379.519C578.136 373.513 609.594 368.084 633.663 383.428Z" stroke="#89AD60" stroke-opacity="0.23"/>
<path fill-rule="evenodd" clip-rule="evenodd" d="M655.957 336.928C688.59 357.728 694.308 401.241 707.94 437.387C720.625 471.021 733.463 503.77 732.409 539.643C731.167 581.875 735.247 633.971 701.417 659.261C667.342 684.734 619.23 654.408 576.618 656.104C538.056 657.639 496.39 690.383 464.411 668.696C432.092 646.779 447.524 595.282 433.37 558.958C420.317 525.461 381.785 501.099 385.186 465.378C388.637 429.12 422.623 404.737 450.303 381.08C477.321 357.988 507.011 338.979 541.826 331.504C579.959 323.317 623.005 315.924 655.957 336.928Z" stroke="#89AD60" stroke-opacity="0.23"/>
<path fill-rule="evenodd" clip-rule="evenodd" d="M676.1 294.932C716.679 320.796 723.808 374.871 740.772 419.795C756.557 461.597 772.533 502.3 771.238 546.878C769.714 599.359 774.81 664.101 732.764 695.513C690.413 727.152 630.586 689.444 577.61 691.533C529.67 693.423 477.885 734.095 438.118 707.13C397.929 679.879 417.09 615.891 399.477 570.745C383.235 529.113 335.32 498.821 339.532 454.432C343.806 409.377 386.046 379.091 420.448 349.705C454.026 321.023 490.928 297.413 534.208 288.14C581.612 277.984 635.124 268.816 676.1 294.932Z" stroke="#89AD60" stroke-opacity="0.23"/>
<path fill-rule="evenodd" clip-rule="evenodd" d="M694.797 255.935C742.755 286.499 751.194 350.383 771.252 403.459C789.916 452.846 808.805 500.934 807.287 553.596C805.5 615.593 811.54 692.077 761.864 729.173C711.828 766.538 641.123 721.976 578.523 724.429C521.875 726.649 460.695 774.682 413.696 742.816C366.199 710.612 388.823 635.026 367.998 581.689C348.794 532.502 292.167 496.704 297.131 444.267C302.17 391.042 352.075 355.275 392.718 320.571C432.389 286.695 475.988 258.815 527.127 247.872C583.139 235.888 646.37 225.071 694.797 255.935Z" stroke="#89AD60" stroke-opacity="0.23"/>
<path fill-rule="evenodd" clip-rule="evenodd" d="M714.215 215.435C769.835 250.881 779.634 324.95 802.905 386.491C824.559 443.754 846.473 499.512 844.724 560.569C842.664 632.449 849.685 721.125 792.086 764.125C734.069 807.437 652.067 755.756 579.474 758.587C513.783 761.15 442.845 816.827 388.337 779.872C333.251 742.525 359.471 654.895 335.311 593.05C313.031 536.019 247.356 494.503 253.102 433.707C258.934 371.999 316.799 330.541 363.923 290.312C409.92 251.045 460.474 218.729 519.775 206.053C584.727 192.169 658.05 179.641 714.215 215.435Z" stroke="#89AD60" stroke-opacity="0.23"/>
<path fill-rule="evenodd" clip-rule="evenodd" d="M737.952 165.936C802.937 207.35 814.399 293.868 841.597 365.754C866.904 432.644 892.516 497.777 890.484 569.093C888.091 653.052 896.309 756.632 829.026 806.847C761.257 857.425 665.446 797.045 580.64 800.339C503.896 803.319 421.032 868.34 357.346 825.165C292.984 781.531 323.6 679.18 295.363 606.938C269.323 540.319 192.591 491.814 199.292 420.803C206.094 348.727 273.688 300.312 328.734 253.332C382.463 207.475 441.517 169.737 510.794 154.942C586.672 138.737 672.33 124.117 737.952 165.936Z" stroke="#89AD60" stroke-opacity="0.23"/>
<path fill-rule="evenodd" clip-rule="evenodd" d="M763.84 111.941C839.042 159.864 852.317 259.962 883.799 343.136C913.093 420.528 942.739 495.886 940.397 578.395C937.641 675.531 947.166 795.369 869.319 853.455C790.909 911.962 680.036 842.091 581.905 845.889C493.104 849.326 397.23 924.539 323.531 874.578C249.05 824.087 284.462 705.676 251.777 622.092C221.636 545.013 132.84 488.884 140.584 406.729C148.444 323.341 226.651 267.338 290.338 212.992C352.503 159.946 420.83 116.294 500.989 99.1871C588.787 80.45 687.901 63.5486 763.84 111.941Z" stroke="#89AD60" stroke-opacity="0.23"/>
<path fill-rule="evenodd" clip-rule="evenodd" d="M789.015 59.4411C874.149 113.693 889.188 226.994 924.835 321.14C958.004 408.743 991.572 494.044 988.93 587.434C985.821 697.381 996.616 833.025 908.499 898.763C819.743 964.978 694.226 885.88 583.142 890.169C482.617 894.049 374.095 979.172 290.662 922.614C206.343 865.455 246.416 731.431 209.408 636.82C175.279 549.572 74.7553 486.03 83.5126 393.041C92.4014 298.656 180.926 235.275 253.015 173.769C323.381 113.733 400.723 64.3311 491.463 44.9765C590.849 23.7777 703.046 4.65785 789.015 59.4411Z" stroke="#89AD60" stroke-opacity="0.23"/>
<path fill-rule="evenodd" clip-rule="evenodd" d="M812.026 11.4458C906.242 71.4835 922.893 196.856 962.348 301.035C999.061 397.973 1036.21 492.363 1033.3 595.703C1029.87 717.362 1041.82 867.458 944.314 940.193C846.101 1013.46 707.195 925.921 584.266 930.658C473.024 934.944 352.938 1029.13 260.604 966.537C167.29 903.282 211.626 754.984 170.664 650.29C132.891 553.745 21.6437 483.426 31.3276 380.531C41.1568 276.092 139.116 205.966 218.886 137.912C296.75 71.4856 382.335 16.8269 482.748 -4.58263C592.729 -28.0322 716.887 -49.1803 812.026 11.4458Z" stroke="#89AD60" stroke-opacity="0.23"/>
<path fill-rule="evenodd" clip-rule="evenodd" d="M836.484 -39.5515C940.349 26.634 958.713 164.833 1002.21 279.671C1042.69 386.528 1083.65 490.576 1080.45 604.486C1076.67 738.591 1089.86 904.041 982.376 984.21C874.113 1064.96 720.982 968.462 585.469 973.675C462.839 978.393 330.466 1082.2 228.676 1013.2C125.805 943.472 174.67 780.006 129.508 664.6C87.8605 558.176 -34.7795 480.657 -24.1112 367.237C-13.2827 252.115 94.6997 174.822 182.632 99.812C268.462 26.5957 362.805 -33.6485 473.496 -57.2414C594.734 -83.0824 731.601 -106.386 836.484 -39.5515Z" stroke="#89AD60" stroke-opacity="0.23"/>
<path fill-rule="evenodd" clip-rule="evenodd" d="M863.093 -95.0496C977.459 -22.1739 997.686 129.983 1045.59 256.421C1090.16 374.071 1135.27 488.63 1131.75 614.044C1127.6 761.691 1142.13 943.851 1023.79 1032.11C904.591 1121.01 735.979 1014.76 586.772 1020.49C451.749 1025.67 306.004 1139.96 193.923 1063.99C80.6526 987.206 134.446 807.235 84.7129 680.172C38.8505 562.997 -96.1879 477.643 -84.4483 352.769C-72.5323 226.021 46.3581 140.929 143.172 58.3491C237.671 -22.2562 341.545 -88.5788 463.421 -114.548C596.909 -142.991 747.607 -168.64 863.093 -95.0496Z" stroke="#89AD60" stroke-opacity="0.23"/>
</svg>
