<svg width="152" height="197" viewBox="0 0 152 197" fill="none" xmlns="http://www.w3.org/2000/svg">
<path d="M13.6094 144.443L77.0738 176.738L138.128 144.443V18.1572H13.6094V144.443Z" fill="white"/>
<path d="M139.414 18.6328L12.3242 146.686L78.1987 179.302L139.414 147.972V18.6328Z" fill="#F2F3F2"/>
<path d="M9.43164 60.2509V147.173L11.681 148.298L75.1455 180.592L77.0735 181.556L79.0015 180.592L140.217 148.298L142.466 147.173V13.978H9.43164V60.2509ZM13.609 144.763V18.1554H138.289V144.763L77.0735 177.058L13.609 144.763Z" fill="#DCDEDC"/>
<path d="M75.9496 20.2441C76.5923 20.2441 77.2349 20.2441 77.8776 20.4048L75.9496 24.1002C73.0575 23.9395 70.4868 26.1889 70.3262 29.081C70.1655 31.973 72.4149 34.5437 75.3069 34.7044H75.9496C77.235 34.7044 78.5203 34.2224 79.4843 33.419L81.573 36.9538C79.9663 38.0784 78.0383 38.7211 75.9496 38.7211C70.8082 38.8818 66.4701 35.0257 66.3094 29.8843C66.1488 24.7429 70.0048 20.4048 75.1462 20.2441H75.9496ZM82.537 28.1169L84.9471 32.1337L82.537 35.9897L80.2877 32.1337H75.6283L78.0383 28.1169H82.537ZM78.681 26.6709C78.681 26.0282 78.8416 25.3856 79.163 24.9036C79.4843 24.4215 80.127 23.9395 80.609 23.6182L80.9304 23.4575C81.573 23.1362 81.7337 22.9755 81.7337 22.6542C81.7337 22.3328 81.2517 22.0115 80.9304 22.0115C80.2877 22.0115 79.8057 22.3328 79.4843 22.9755L78.681 22.1722C78.8416 21.8508 79.163 21.5295 79.4843 21.2082C79.9663 20.8868 80.4483 20.8868 80.9304 20.8868C81.4124 20.8868 82.055 21.0475 82.3764 21.3688C82.6977 21.6902 83.0191 22.1722 83.0191 22.6542C83.0191 23.4575 82.537 24.1002 81.573 24.4215L81.091 24.7429C80.609 25.0642 80.2877 25.2249 80.127 25.7069H83.0191V26.8316L78.681 26.6709ZM75.9496 46.7546L91.2132 38.0784V13.978H60.5253V37.9178L75.9496 46.7546ZM145.519 103.632H6.3797L1.23828 114.878L6.3797 126.125H145.519L150.5 114.878L145.519 103.632Z" fill="#FF492C"/>
<path d="M28.3902 79.5173C29.4506 79.5173 30.3825 79.7316 31.1859 80.16C31.9892 80.5885 32.6105 81.2044 33.0496 82.0077C33.4888 82.8003 33.7084 83.7108 33.7084 84.7391C33.7084 85.7567 33.4834 86.6511 33.0336 87.4223C32.573 88.1828 31.9303 88.7773 31.1055 89.2057C30.2808 89.6342 29.3274 89.8484 28.2456 89.8484H24.8233C24.7484 89.8484 24.7109 89.8912 24.7109 89.9769V96.1145C24.7109 96.2002 24.6787 96.2698 24.6145 96.3234C24.5609 96.3769 24.4913 96.4037 24.4056 96.4037H21.5939C21.5082 96.4037 21.4386 96.3769 21.385 96.3234C21.3315 96.2698 21.3047 96.2002 21.3047 96.1145V79.8065C21.3047 79.7208 21.3315 79.6512 21.385 79.5977C21.4386 79.5441 21.5082 79.5173 21.5939 79.5173H28.3902ZM27.8761 87.1331C28.6259 87.1331 29.2203 86.9188 29.6595 86.4904C30.1094 86.0619 30.3343 85.5049 30.3343 84.8194C30.3343 84.1018 30.1094 83.5287 29.6595 83.1003C29.2203 82.6611 28.6259 82.4415 27.8761 82.4415H24.8233C24.7484 82.4415 24.7109 82.4844 24.7109 82.5701V87.0045C24.7109 87.0902 24.7484 87.1331 24.8233 87.1331H27.8761ZM45.8711 88.9326C45.9567 89.5431 45.9835 90.2233 45.9514 90.9731C45.9407 91.1766 45.8389 91.2783 45.6461 91.2783H38.2071C38.1107 91.2783 38.0732 91.3158 38.0946 91.3908C38.1482 91.7121 38.2393 92.0335 38.3678 92.3548C38.7855 93.2546 39.6371 93.7044 40.9224 93.7044C41.9507 93.6937 42.7594 93.276 43.3485 92.4512C43.4235 92.3548 43.4985 92.3066 43.5735 92.3066C43.6163 92.3066 43.6699 92.3388 43.7341 92.403L45.4694 94.1061C45.5551 94.1918 45.5979 94.2668 45.5979 94.3311C45.5979 94.3632 45.5658 94.4275 45.5015 94.5239C44.9659 95.188 44.2858 95.6967 43.461 96.0502C42.6148 96.4144 41.6936 96.5965 40.6975 96.5965C39.3264 96.5965 38.1589 96.2859 37.1949 95.6646C36.2416 95.0326 35.5561 94.1543 35.1383 93.0296C34.7956 92.2263 34.6242 91.1766 34.6242 89.8805C34.6242 88.9915 34.7474 88.2095 34.9937 87.5347C35.3686 86.3993 36.0167 85.4942 36.9378 84.8194C37.859 84.1446 38.9516 83.8072 40.2155 83.8072C41.8222 83.8072 43.1129 84.2731 44.0876 85.205C45.0623 86.1369 45.6568 87.3794 45.8711 88.9326ZM40.2476 86.7475C39.23 86.7475 38.5606 87.2188 38.2393 88.1614C38.175 88.3756 38.1214 88.6326 38.0786 88.9326C38.0786 89.0075 38.1214 89.045 38.2071 89.045H42.3685C42.4649 89.045 42.497 89.0075 42.4649 88.9326C42.3792 88.472 42.3363 88.247 42.3363 88.2578C42.1971 87.7757 41.9454 87.4008 41.5812 87.1331C41.2277 86.876 40.7832 86.7475 40.2476 86.7475ZM54.2259 83.8554C54.8043 83.8554 55.2649 83.9679 55.6076 84.1928C55.7255 84.2571 55.7683 84.3749 55.7362 84.5463L55.2381 87.2937C55.2274 87.4865 55.1149 87.5454 54.9007 87.4705C54.6543 87.3848 54.3758 87.3419 54.0652 87.3419C53.9367 87.3419 53.7546 87.358 53.5189 87.3901C52.9512 87.4437 52.4639 87.6579 52.0568 88.0328C51.6605 88.4077 51.4624 88.9111 51.4624 89.5431V96.1145C51.4624 96.2002 51.4302 96.2698 51.3659 96.3234C51.3124 96.3769 51.2481 96.4037 51.1731 96.4037H48.3454C48.2704 96.4037 48.2008 96.3769 48.1365 96.3234C48.0829 96.2698 48.0562 96.2002 48.0562 96.1145V84.3053C48.0562 84.2303 48.0829 84.1607 48.1365 84.0964C48.2008 84.0429 48.2704 84.0161 48.3454 84.0161H51.1731C51.2481 84.0161 51.3124 84.0429 51.3659 84.0964C51.4302 84.1607 51.4624 84.2303 51.4624 84.3053V85.2211C51.4624 85.2639 51.4784 85.2961 51.5106 85.3175C51.532 85.3389 51.5534 85.3282 51.5748 85.2854C52.2389 84.3321 53.1226 83.8554 54.2259 83.8554ZM64.4926 84C64.5783 84 64.648 84.0268 64.7015 84.0803C64.7551 84.1339 64.7819 84.2035 64.7819 84.2892V86.5707C64.7819 86.6564 64.7551 86.726 64.7015 86.7796C64.648 86.8331 64.5783 86.8599 64.4926 86.8599H62.1629C62.0773 86.8599 62.0344 86.8974 62.0344 86.9724V96.1145C62.0344 96.2002 62.0076 96.2698 61.9541 96.3234C61.9005 96.3769 61.8309 96.4037 61.7452 96.4037H58.9335C58.8478 96.4037 58.7782 96.3769 58.7246 96.3234C58.6711 96.2698 58.6443 96.2002 58.6443 96.1145V86.9724C58.6443 86.8974 58.6014 86.8599 58.5157 86.8599H57.1018C57.0162 86.8599 56.9465 86.8331 56.893 86.7796C56.8394 86.726 56.8126 86.6564 56.8126 86.5707V84.2892C56.8126 84.2035 56.8394 84.1339 56.893 84.0803C56.9465 84.0268 57.0162 84 57.1018 84H58.5157C58.6014 84 58.6443 83.9572 58.6443 83.8715V83.3413C58.6443 82.3451 58.7942 81.5685 59.0942 81.0116C59.4048 80.4653 59.8975 80.0743 60.5723 79.8387C61.2578 79.603 62.2058 79.5013 63.4162 79.5334H64.332C64.407 79.5334 64.4712 79.5602 64.5248 79.6137C64.5891 79.678 64.6212 79.7476 64.6212 79.8226V81.7667C64.6212 81.8524 64.5891 81.922 64.5248 81.9756C64.4712 82.0398 64.407 82.072 64.332 82.072H63.5286C62.9716 82.0827 62.5807 82.1952 62.3557 82.4094C62.1415 82.6343 62.0344 83.036 62.0344 83.6144V83.8715C62.0344 83.9572 62.0773 84 62.1629 84H64.4926ZM71.4818 96.5965C70.1321 96.5965 68.9753 96.243 68.0113 95.5361C67.0473 94.8291 66.3885 93.8651 66.0351 92.644C65.8101 91.8942 65.6977 91.0748 65.6977 90.1858C65.6977 89.2432 65.8101 88.3916 66.0351 87.6311C66.41 86.4422 67.0794 85.5103 68.0434 84.8355C69.0075 84.1607 70.1643 83.8233 71.5139 83.8233C72.8207 83.8233 73.9454 84.1553 74.888 84.8194C75.8091 85.4942 76.4625 86.4261 76.8481 87.6151C77.1159 88.4184 77.2498 89.2593 77.2498 90.1376C77.2498 91.0052 77.1373 91.8193 76.9124 92.5798C76.5589 93.833 75.9002 94.8131 74.9362 95.52C73.9829 96.2377 72.8314 96.5965 71.4818 96.5965ZM71.4818 93.6884C72.0066 93.6884 72.4565 93.5277 72.8314 93.2064C73.2063 92.885 73.4741 92.4405 73.6347 91.8728C73.7526 91.3587 73.8115 90.7963 73.8115 90.1858C73.8115 89.511 73.7526 88.9433 73.6347 88.4827C73.4526 87.9364 73.1795 87.508 72.8153 87.1973C72.4404 86.8974 71.9852 86.7475 71.4496 86.7475C70.9141 86.7475 70.4642 86.8974 70.1 87.1973C69.7358 87.508 69.4734 87.9364 69.3127 88.4827C69.1842 88.8576 69.1199 89.4253 69.1199 90.1858C69.1199 90.9142 69.1788 91.4765 69.2967 91.8728C69.4573 92.4405 69.7251 92.885 70.1 93.2064C70.4749 93.5277 70.9355 93.6884 71.4818 93.6884ZM85.6046 83.8554C86.183 83.8554 86.6436 83.9679 86.9864 84.1928C87.1149 84.2571 87.1578 84.3749 87.1149 84.5463L86.6168 87.2937C86.6061 87.4865 86.4937 87.5454 86.2794 87.4705C86.0331 87.3848 85.7546 87.3419 85.444 87.3419C85.3154 87.3419 85.1387 87.358 84.9137 87.3901C84.3353 87.4437 83.8426 87.6579 83.4356 88.0328C83.0393 88.4077 82.8411 88.9111 82.8411 89.5431V96.1145C82.8411 96.2002 82.809 96.2698 82.7447 96.3234C82.6911 96.3769 82.6215 96.4037 82.5358 96.4037H79.7241C79.6491 96.4037 79.5795 96.3769 79.5152 96.3234C79.4617 96.2698 79.4349 96.2002 79.4349 96.1145V84.3053C79.4349 84.2303 79.4617 84.1607 79.5152 84.0964C79.5795 84.0429 79.6491 84.0161 79.7241 84.0161H82.5358C82.6215 84.0161 82.6911 84.0429 82.7447 84.0964C82.809 84.1607 82.8411 84.2303 82.8411 84.3053V85.2211C82.8411 85.2639 82.8518 85.2961 82.8732 85.3175C82.9161 85.3389 82.9429 85.3282 82.9536 85.2854C83.6177 84.3321 84.5014 83.8554 85.6046 83.8554ZM102.395 83.8233C103.648 83.8233 104.628 84.1982 105.335 84.948C106.042 85.7085 106.395 86.7742 106.395 88.1453V96.1145C106.395 96.2002 106.368 96.2698 106.315 96.3234C106.261 96.3769 106.197 96.4037 106.122 96.4037H103.294C103.219 96.4037 103.15 96.3769 103.085 96.3234C103.032 96.2698 103.005 96.2002 103.005 96.1145V88.8844C103.005 88.231 102.839 87.7115 102.507 87.3259C102.164 86.9403 101.709 86.7475 101.141 86.7475C100.584 86.7475 100.129 86.9403 99.7757 87.3259C99.4222 87.7115 99.2455 88.2256 99.2455 88.8683V96.1145C99.2455 96.2002 99.2187 96.2698 99.1651 96.3234C99.1009 96.3769 99.0312 96.4037 98.9563 96.4037H96.1606C96.0749 96.4037 96.0053 96.3769 95.9517 96.3234C95.8982 96.2698 95.8714 96.2002 95.8714 96.1145V88.8844C95.8714 88.2417 95.6947 87.7222 95.3412 87.3259C94.9877 86.9403 94.5271 86.7475 93.9594 86.7475C93.456 86.7475 93.0275 86.8974 92.6741 87.1973C92.3313 87.508 92.1278 87.9364 92.0635 88.4827V96.1145C92.0635 96.2002 92.0368 96.2698 91.9832 96.3234C91.9189 96.3769 91.8493 96.4037 91.7743 96.4037H88.9626C88.8769 96.4037 88.8073 96.3769 88.7537 96.3234C88.7002 96.2698 88.6734 96.2002 88.6734 96.1145V84.3053C88.6734 84.2303 88.7002 84.1607 88.7537 84.0964C88.8073 84.0429 88.8769 84.0161 88.9626 84.0161H91.7743C91.8493 84.0161 91.9189 84.0429 91.9832 84.0964C92.0368 84.1607 92.0635 84.2303 92.0635 84.3053V85.2532C92.0635 85.2961 92.0796 85.3282 92.1117 85.3496C92.1439 85.3603 92.176 85.3389 92.2081 85.2854C92.8722 84.3106 93.8952 83.8233 95.2769 83.8233C96.0803 83.8233 96.7819 83.9947 97.3817 84.3374C97.9815 84.6695 98.4421 85.1515 98.7635 85.7834C98.8063 85.8798 98.8652 85.8798 98.9402 85.7834C99.283 85.1193 99.7596 84.6266 100.37 84.3053C100.97 83.9839 101.645 83.8233 102.395 83.8233ZM119.683 88.9326C119.779 89.5431 119.811 90.2233 119.779 90.9731C119.758 91.1766 119.65 91.2783 119.458 91.2783H112.019C111.922 91.2783 111.89 91.3158 111.922 91.3908C111.965 91.7121 112.051 92.0335 112.179 92.3548C112.597 93.2546 113.449 93.7044 114.734 93.7044C115.762 93.6937 116.576 93.276 117.176 92.4512C117.24 92.3548 117.31 92.3066 117.385 92.3066C117.439 92.3066 117.498 92.3388 117.562 92.403L119.297 94.1061C119.372 94.1918 119.409 94.2668 119.409 94.3311C119.409 94.3632 119.377 94.4275 119.313 94.5239C118.788 95.188 118.108 95.6967 117.273 96.0502C116.437 96.4144 115.521 96.5965 114.525 96.5965C113.143 96.5965 111.976 96.2859 111.023 95.6646C110.059 95.0326 109.368 94.1543 108.95 93.0296C108.618 92.2263 108.452 91.1766 108.452 89.8805C108.452 88.9915 108.57 88.2095 108.805 87.5347C109.18 86.3993 109.828 85.4942 110.749 84.8194C111.671 84.1446 112.768 83.8072 114.043 83.8072C115.65 83.8072 116.941 84.2731 117.915 85.205C118.89 86.1369 119.479 87.3794 119.683 88.9326ZM114.059 86.7475C113.052 86.7475 112.388 87.2188 112.067 88.1614C112.003 88.3756 111.944 88.6326 111.89 88.9326C111.89 89.0075 111.933 89.045 112.019 89.045H116.18C116.276 89.045 116.309 89.0075 116.276 88.9326C116.201 88.472 116.164 88.247 116.164 88.2578C116.014 87.7757 115.762 87.4008 115.409 87.1331C115.045 86.876 114.595 86.7475 114.059 86.7475ZM128.037 83.8554C128.616 83.8554 129.076 83.9679 129.419 84.1928C129.548 84.2571 129.596 84.3749 129.564 84.5463L129.066 87.2937C129.044 87.4865 128.926 87.5454 128.712 87.4705C128.477 87.3848 128.198 87.3419 127.877 87.3419C127.748 87.3419 127.571 87.358 127.347 87.3901C126.768 87.4437 126.275 87.6579 125.868 88.0328C125.472 88.4077 125.274 88.9111 125.274 89.5431V96.1145C125.274 96.2002 125.247 96.2698 125.194 96.3234C125.129 96.3769 125.06 96.4037 124.985 96.4037H122.157C122.082 96.4037 122.018 96.3769 121.964 96.3234C121.9 96.2698 121.868 96.2002 121.868 96.1145V84.3053C121.868 84.2303 121.9 84.1607 121.964 84.0964C122.018 84.0429 122.082 84.0161 122.157 84.0161H124.985C125.06 84.0161 125.129 84.0429 125.194 84.0964C125.247 84.1607 125.274 84.2303 125.274 84.3053V85.2211C125.274 85.2639 125.29 85.2961 125.322 85.3175C125.354 85.3389 125.381 85.3282 125.402 85.2854C126.056 84.3321 126.934 83.8554 128.037 83.8554ZM61.7452 55.7222C61.7452 55.6472 61.772 55.5776 61.8255 55.5133C61.8791 55.4598 61.9434 55.433 62.0183 55.433H64.8461C64.9211 55.433 64.9907 55.4598 65.055 55.5133C65.1085 55.5776 65.1353 55.6472 65.1353 55.7222V72.0141C65.1353 72.0998 65.1085 72.1694 65.055 72.2229C64.9907 72.2765 64.9211 72.3033 64.8461 72.3033H62.0183C61.9434 72.3033 61.8791 72.2765 61.8255 72.2229C61.772 72.1694 61.7452 72.0998 61.7452 72.0141V65.3624C61.7452 65.2874 61.7024 65.2499 61.6167 65.2499H56.2824C56.2075 65.2499 56.17 65.2874 56.17 65.3624V72.0141C56.17 72.0998 56.1432 72.1694 56.0896 72.2229C56.0254 72.2765 55.9557 72.3033 55.8808 72.3033H53.053C52.978 72.3033 52.9137 72.2765 52.8602 72.2229C52.7959 72.1694 52.7638 72.0998 52.7638 72.0141V55.7222C52.7638 55.6472 52.7959 55.5776 52.8602 55.5133C52.9137 55.4598 52.978 55.433 53.053 55.433H55.8808C55.9557 55.433 56.0254 55.4598 56.0896 55.5133C56.1432 55.5776 56.17 55.6472 56.17 55.7222V62.1972C56.17 62.2828 56.2075 62.3257 56.2824 62.3257H61.6167C61.7024 62.3257 61.7452 62.2828 61.7452 62.1972V55.7222ZM69.5216 58.5178C68.9753 58.5178 68.5201 58.3357 68.1559 57.9716C67.7917 57.6181 67.6096 57.1682 67.6096 56.6219C67.6096 56.0542 67.7864 55.5936 68.1398 55.2402C68.4933 54.8867 68.9539 54.71 69.5216 54.71C70.0893 54.71 70.5499 54.8867 70.9034 55.2402C71.2568 55.5936 71.4336 56.0542 71.4336 56.6219C71.4336 57.1682 71.2515 57.6181 70.8873 57.9716C70.5231 58.3357 70.0679 58.5178 69.5216 58.5178ZM68.0756 72.3033C68.0006 72.3033 67.931 72.2765 67.8667 72.2229C67.8131 72.1694 67.7864 72.0998 67.7864 72.0141V60.1888C67.7864 60.1031 67.8131 60.0335 67.8667 59.9799C67.931 59.9264 68.0006 59.8996 68.0756 59.8996H70.9034C70.9783 59.8996 71.0426 59.9264 71.0962 59.9799C71.1604 60.0335 71.1926 60.1031 71.1926 60.1888V72.0141C71.1926 72.0998 71.1604 72.1694 71.0962 72.2229C71.0426 72.2765 70.9783 72.3033 70.9034 72.3033H68.0756ZM81.3951 60.2049C81.3951 60.1299 81.4272 60.0603 81.4915 59.996C81.545 59.9424 81.6093 59.9157 81.6843 59.9157H84.5121C84.587 59.9157 84.6567 59.9424 84.7209 59.996C84.7745 60.0603 84.8013 60.1299 84.8013 60.2049V71.1947C84.8013 73.2941 84.1961 74.7936 82.9857 75.6934C81.7753 76.6039 80.2115 77.0591 78.2942 77.0591C77.7265 77.0591 77.0998 77.0162 76.4143 76.9306C76.2537 76.9091 76.1733 76.8074 76.1733 76.6253L76.2697 74.1349C76.2697 73.9207 76.3822 73.8296 76.6071 73.8618C77.1855 73.9582 77.7157 74.0064 78.1978 74.0064C79.226 74.0064 80.0187 73.7868 80.5757 73.3476C81.1219 72.887 81.3951 72.164 81.3951 71.1786C81.3951 71.125 81.379 71.0929 81.3469 71.0822C81.3147 71.0715 81.2826 71.0875 81.2505 71.1304C80.6399 71.7838 79.7509 72.1105 78.5834 72.1105C77.5337 72.1105 76.575 71.8588 75.7074 71.3553C74.8291 70.8519 74.2024 70.0378 73.8275 68.9131C73.5919 68.1741 73.4741 67.2154 73.4741 66.0372C73.4741 64.7839 73.6187 63.7664 73.9079 62.9844C74.2399 61.999 74.8076 61.2117 75.611 60.6226C76.4143 60.0228 77.3516 59.7228 78.4227 59.7228C79.6545 59.7228 80.5971 60.0924 81.2505 60.8315C81.2826 60.8636 81.3147 60.8743 81.3469 60.8636C81.379 60.8529 81.3951 60.8261 81.3951 60.7833V60.2049ZM81.2023 67.9813C81.3308 67.51 81.3951 66.8512 81.3951 66.005C81.3951 65.5123 81.379 65.1321 81.3469 64.8643C81.3147 64.5858 81.2612 64.3234 81.1862 64.077C81.0363 63.6485 80.7952 63.3004 80.4632 63.0326C80.1311 62.7756 79.7134 62.647 79.21 62.647C78.728 62.647 78.3209 62.7756 77.9889 63.0326C77.6461 63.3004 77.3944 63.6485 77.2337 64.077C77.0088 64.559 76.8963 65.2124 76.8963 66.0372C76.8963 66.9369 76.9927 67.5796 77.1855 67.9652C77.3248 68.4044 77.5765 68.7525 77.9407 69.0095C78.3049 69.2773 78.7333 69.4112 79.226 69.4112C79.7402 69.4112 80.1686 69.2773 80.5114 69.0095C80.8434 68.7525 81.0737 68.4097 81.2023 67.9813ZM93.7024 59.7228C94.9877 59.7228 96.0214 60.1192 96.8033 60.9118C97.5852 61.6937 97.9762 62.7595 97.9762 64.1091V72.0141C97.9762 72.0998 97.9494 72.1694 97.8958 72.2229C97.8423 72.2765 97.778 72.3033 97.703 72.3033H94.8753C94.8003 72.3033 94.7306 72.2765 94.6664 72.2229C94.6128 72.1694 94.586 72.0998 94.586 72.0141V64.8C94.586 64.168 94.404 63.6485 94.0398 63.2415C93.6863 62.8452 93.2096 62.647 92.6098 62.647C92.0207 62.647 91.544 62.8452 91.1799 63.2415C90.8157 63.6485 90.6336 64.168 90.6336 64.8V72.0141C90.6336 72.0998 90.6068 72.1694 90.5532 72.2229C90.4997 72.2765 90.4301 72.3033 90.3444 72.3033H87.5327C87.447 72.3033 87.3773 72.2765 87.3238 72.2229C87.2702 72.1694 87.2434 72.0998 87.2434 72.0141V55.7222C87.2434 55.6472 87.2702 55.5776 87.3238 55.5133C87.3773 55.4598 87.447 55.433 87.5327 55.433H90.3444C90.4301 55.433 90.4997 55.4598 90.5532 55.5133C90.6068 55.5776 90.6336 55.6472 90.6336 55.7222V61.0564C90.6336 61.0993 90.6496 61.1314 90.6818 61.1528C90.7139 61.1635 90.7353 61.1528 90.746 61.1207C91.4101 60.1888 92.3956 59.7228 93.7024 59.7228Z" fill="#252530"/>
<path d="M27.7483 121.271C26.9129 121.271 26.1845 121.137 25.5632 120.87C24.942 120.602 24.46 120.227 24.1172 119.745C23.7852 119.263 23.6191 118.695 23.6191 118.042V117.64C23.6191 117.587 23.6406 117.538 23.6834 117.496C23.7155 117.463 23.7584 117.447 23.8119 117.447H25.2419C25.2955 117.447 25.3437 117.463 25.3865 117.496C25.4186 117.538 25.4347 117.587 25.4347 117.64V117.945C25.4347 118.438 25.6543 118.845 26.0935 119.167C26.5326 119.499 27.1324 119.665 27.8929 119.665C28.5463 119.665 29.0391 119.525 29.3711 119.247C29.7032 118.968 29.8692 118.61 29.8692 118.17C29.8692 117.87 29.7781 117.613 29.596 117.399C29.414 117.196 29.1569 117.008 28.8248 116.837C28.4821 116.665 27.9733 116.451 27.2985 116.194C26.538 115.916 25.9221 115.653 25.4508 115.407C24.9795 115.161 24.5885 114.823 24.2779 114.395C23.9565 113.977 23.7959 113.452 23.7959 112.82C23.7959 111.878 24.1386 111.133 24.8242 110.587C25.5097 110.041 26.4255 109.767 27.5716 109.767C28.375 109.767 29.0873 109.907 29.7085 110.185C30.3191 110.464 30.7957 110.855 31.1385 111.358C31.4812 111.851 31.6526 112.424 31.6526 113.077V113.35C31.6526 113.404 31.6312 113.452 31.5884 113.495C31.5562 113.527 31.5134 113.543 31.4598 113.543H30.0138C29.9602 113.543 29.9174 113.527 29.8853 113.495C29.8424 113.452 29.821 113.404 29.821 113.35V113.174C29.821 112.67 29.6175 112.247 29.2104 111.904C28.7927 111.551 28.2196 111.374 27.4913 111.374C26.9022 111.374 26.4469 111.497 26.1256 111.744C25.7935 111.99 25.6275 112.338 25.6275 112.788C25.6275 113.109 25.7132 113.372 25.8846 113.575C26.056 113.779 26.313 113.961 26.6558 114.122C26.9986 114.293 27.5288 114.507 28.2464 114.764C29.0069 115.053 29.6175 115.316 30.0781 115.551C30.5279 115.787 30.9189 116.114 31.2509 116.532C31.5723 116.96 31.733 117.49 31.733 118.122C31.733 119.086 31.3741 119.852 30.6565 120.42C29.9495 120.987 28.9801 121.271 27.7483 121.271ZM42.2247 112.804C43.0494 112.804 43.6975 113.05 44.1688 113.543C44.6294 114.047 44.8596 114.743 44.8596 115.632V120.95C44.8596 121.004 44.8436 121.046 44.8115 121.079C44.7686 121.121 44.7204 121.143 44.6668 121.143H43.2048C43.1512 121.143 43.1084 121.121 43.0762 121.079C43.0334 121.046 43.012 121.004 43.012 120.95V116.017C43.012 115.525 42.8834 115.134 42.6263 114.845C42.3586 114.555 42.0051 114.411 41.5659 114.411C41.1268 114.411 40.7679 114.555 40.4894 114.845C40.2109 115.134 40.0717 115.519 40.0717 116.001V120.95C40.0717 121.004 40.0556 121.046 40.0235 121.079C39.9807 121.121 39.9325 121.143 39.8789 121.143H38.4168C38.3632 121.143 38.315 121.121 38.2722 121.079C38.2401 121.046 38.224 121.004 38.224 120.95V116.017C38.224 115.525 38.0901 115.134 37.8223 114.845C37.5545 114.555 37.2011 114.411 36.7619 114.411C36.3549 114.411 36.0175 114.529 35.7497 114.764C35.4926 115 35.3427 115.321 35.2998 115.728V120.95C35.2998 121.004 35.2837 121.046 35.2516 121.079C35.2088 121.121 35.1606 121.143 35.107 121.143H33.6289C33.5753 121.143 33.5324 121.121 33.5003 121.079C33.4575 121.046 33.436 121.004 33.436 120.95V113.125C33.436 113.072 33.4575 113.024 33.5003 112.981C33.5324 112.949 33.5753 112.933 33.6289 112.933H35.107C35.1606 112.933 35.2088 112.949 35.2516 112.981C35.2837 113.024 35.2998 113.072 35.2998 113.125V113.656C35.2998 113.688 35.3105 113.709 35.332 113.72C35.3534 113.731 35.3748 113.72 35.3962 113.688C35.6319 113.388 35.9211 113.168 36.2638 113.029C36.6173 112.879 37.0083 112.804 37.4367 112.804C37.9616 112.804 38.4222 112.911 38.8185 113.125C39.2148 113.34 39.5201 113.65 39.7343 114.057C39.7664 114.1 39.8039 114.1 39.8468 114.057C40.0824 113.629 40.4091 113.313 40.8268 113.109C41.2446 112.906 41.7105 112.804 42.2247 112.804ZM49.8886 112.804C50.5634 112.804 51.1579 112.922 51.672 113.158C52.1862 113.393 52.5825 113.714 52.861 114.122C53.1395 114.539 53.2787 115.011 53.2787 115.535V120.95C53.2787 121.004 53.2627 121.046 53.2305 121.079C53.1877 121.121 53.1395 121.143 53.0859 121.143H51.6078C51.5542 121.143 51.5114 121.121 51.4792 121.079C51.4364 121.046 51.415 121.004 51.415 120.95V120.436C51.415 120.404 51.4043 120.382 51.3828 120.372C51.3614 120.372 51.34 120.382 51.3186 120.404C50.7937 120.982 50.0332 121.271 49.0371 121.271C48.2337 121.271 47.575 121.068 47.0608 120.661C46.536 120.254 46.2735 119.649 46.2735 118.845C46.2735 118.01 46.5681 117.356 47.1572 116.885C47.7356 116.424 48.555 116.194 49.6155 116.194H51.3346C51.3882 116.194 51.415 116.167 51.415 116.114V115.728C51.415 115.31 51.2918 114.984 51.0454 114.748C50.7991 114.523 50.4295 114.411 49.9368 114.411C49.5298 114.411 49.2031 114.486 48.9567 114.636C48.6997 114.775 48.539 114.973 48.4747 115.23C48.4426 115.359 48.3676 115.412 48.2498 115.391L46.6913 115.198C46.6377 115.187 46.5949 115.171 46.5627 115.15C46.5199 115.118 46.5038 115.08 46.5145 115.037C46.6002 114.384 46.9537 113.848 47.575 113.431C48.1855 113.013 48.9567 112.804 49.8886 112.804ZM49.503 119.793C50.0279 119.793 50.4777 119.654 50.8526 119.375C51.2275 119.097 51.415 118.743 51.415 118.315V117.56C51.415 117.506 51.3882 117.48 51.3346 117.48H49.985C49.4173 117.48 48.9728 117.587 48.6515 117.801C48.3194 118.015 48.1534 118.32 48.1534 118.717C48.1534 119.059 48.2819 119.322 48.539 119.504C48.7853 119.697 49.1067 119.793 49.503 119.793ZM55.3353 121.143C55.2817 121.143 55.2389 121.121 55.2068 121.079C55.1639 121.046 55.1425 121.004 55.1425 120.95V110.089C55.1425 110.035 55.1639 109.992 55.2068 109.96C55.2389 109.917 55.2817 109.896 55.3353 109.896H56.8135C56.867 109.896 56.9152 109.917 56.9581 109.96C56.9902 109.992 57.0063 110.035 57.0063 110.089V120.95C57.0063 121.004 56.9902 121.046 56.9581 121.079C56.9152 121.121 56.867 121.143 56.8135 121.143H55.3353ZM59.1753 121.143C59.1217 121.143 59.0789 121.121 59.0468 121.079C59.0039 121.046 58.9825 121.004 58.9825 120.95V110.089C58.9825 110.035 59.0039 109.992 59.0468 109.96C59.0789 109.917 59.1217 109.896 59.1753 109.896H60.6535C60.707 109.896 60.7552 109.917 60.7981 109.96C60.8302 109.992 60.8463 110.035 60.8463 110.089V120.95C60.8463 121.004 60.8302 121.046 60.7981 121.079C60.7552 121.121 60.707 121.143 60.6535 121.143H59.1753ZM72.4948 115.278C72.4305 115.31 72.4305 115.343 72.4948 115.375C73.5874 115.889 74.1336 116.773 74.1336 118.026C74.1336 119.043 73.7962 119.82 73.1214 120.356C72.4359 120.88 71.5469 121.143 70.4543 121.143H66.4054C66.3519 121.143 66.309 121.121 66.2769 121.079C66.2341 121.046 66.2126 121.004 66.2126 120.95V110.089C66.2126 110.035 66.2341 109.992 66.2769 109.96C66.309 109.917 66.3519 109.896 66.4054 109.896H70.3258C71.4933 109.896 72.3931 110.148 73.025 110.651C73.657 111.154 73.973 111.915 73.973 112.933C73.973 114.057 73.4802 114.839 72.4948 115.278ZM68.1567 111.503C68.1032 111.503 68.0764 111.529 68.0764 111.583V114.555C68.0764 114.609 68.1032 114.636 68.1567 114.636H70.3258C70.8935 114.636 71.3433 114.502 71.6754 114.234C71.9967 113.955 72.1574 113.575 72.1574 113.093C72.1574 112.601 71.9967 112.21 71.6754 111.92C71.3433 111.642 70.8935 111.503 70.3258 111.503H68.1567ZM70.4543 119.52C71.0113 119.52 71.4558 119.37 71.7879 119.07C72.1092 118.77 72.2699 118.363 72.2699 117.849C72.2699 117.324 72.1038 116.917 71.7718 116.628C71.4397 116.328 70.9899 116.178 70.4222 116.178H68.1567C68.1032 116.178 68.0764 116.205 68.0764 116.258V119.44C68.0764 119.493 68.1032 119.52 68.1567 119.52H70.4543ZM80.7372 113.125C80.7372 113.072 80.7532 113.024 80.7854 112.981C80.8282 112.949 80.8764 112.933 80.93 112.933H82.3921C82.4456 112.933 82.4938 112.949 82.5367 112.981C82.5688 113.024 82.5849 113.072 82.5849 113.125V120.95C82.5849 121.004 82.5688 121.046 82.5367 121.079C82.4938 121.121 82.4456 121.143 82.3921 121.143H80.93C80.8764 121.143 80.8282 121.121 80.7854 121.079C80.7532 121.046 80.7372 121.004 80.7372 120.95V120.436C80.7372 120.404 80.7264 120.382 80.705 120.372C80.6836 120.361 80.6622 120.372 80.6407 120.404C80.2016 120.971 79.5428 121.255 78.6645 121.255C77.8505 121.255 77.1703 121.02 76.624 120.548C76.067 120.077 75.7885 119.408 75.7885 118.54V113.125C75.7885 113.072 75.8046 113.024 75.8367 112.981C75.8796 112.949 75.9278 112.933 75.9813 112.933H77.4595C77.5131 112.933 77.5613 112.949 77.6041 112.981C77.6362 113.024 77.6523 113.072 77.6523 113.125V118.01C77.6523 118.513 77.7862 118.915 78.054 119.215C78.311 119.515 78.6752 119.665 79.1465 119.665C79.6285 119.665 80.0141 119.515 80.3033 119.215C80.5925 118.915 80.7372 118.513 80.7372 118.01V113.125ZM87.6299 121.239C86.9551 121.239 86.3606 121.137 85.8465 120.934C85.343 120.741 84.952 120.468 84.6736 120.114C84.3951 119.772 84.2558 119.386 84.2558 118.958V118.813C84.2558 118.76 84.2719 118.711 84.304 118.668C84.3469 118.636 84.3951 118.62 84.4486 118.62H85.8625C85.9161 118.62 85.9589 118.636 85.991 118.668C86.0339 118.711 86.0553 118.76 86.0553 118.813V118.845C86.0553 119.113 86.1999 119.349 86.4891 119.552C86.789 119.745 87.1639 119.841 87.6138 119.841C88.0423 119.841 88.3904 119.756 88.6582 119.584C88.9259 119.402 89.0598 119.177 89.0598 118.909C89.0598 118.663 88.9474 118.476 88.7224 118.347C88.5082 118.229 88.1547 118.101 87.662 117.962L87.0515 117.769C86.5052 117.608 86.0446 117.437 85.6697 117.255C85.2948 117.072 84.9788 116.821 84.7218 116.499C84.4647 116.189 84.3362 115.787 84.3362 115.294C84.3362 114.545 84.6307 113.95 85.2198 113.511C85.8089 113.061 86.5855 112.836 87.5495 112.836C88.2029 112.836 88.776 112.938 89.2687 113.141C89.7614 113.356 90.1417 113.645 90.4095 114.009C90.6772 114.384 90.8111 114.807 90.8111 115.278C90.8111 115.332 90.7897 115.38 90.7469 115.423C90.7147 115.455 90.6719 115.471 90.6183 115.471H89.2526C89.1991 115.471 89.1509 115.455 89.108 115.423C89.0759 115.38 89.0598 115.332 89.0598 115.278C89.0598 115 88.9206 114.77 88.6421 114.587C88.3743 114.395 88.0048 114.298 87.5335 114.298C87.1157 114.298 86.773 114.373 86.5052 114.523C86.2481 114.684 86.1196 114.903 86.1196 115.182C86.1196 115.439 86.2428 115.632 86.4891 115.76C86.7462 115.9 87.1693 116.05 87.7584 116.21L88.1119 116.307C88.6796 116.478 89.1562 116.649 89.5418 116.821C89.9275 117.003 90.2541 117.249 90.5219 117.56C90.7897 117.881 90.9236 118.294 90.9236 118.797C90.9236 119.558 90.6237 120.152 90.0239 120.58C89.424 121.02 88.626 121.239 87.6299 121.239ZM93.5586 111.808C93.2265 111.808 92.9534 111.701 92.7392 111.487C92.5249 111.272 92.4178 110.999 92.4178 110.667C92.4178 110.335 92.5249 110.062 92.7392 109.848C92.9534 109.633 93.2265 109.526 93.5586 109.526C93.8906 109.526 94.1638 109.633 94.378 109.848C94.5922 110.062 94.6993 110.335 94.6993 110.667C94.6993 110.999 94.5922 111.272 94.378 111.487C94.1638 111.701 93.8906 111.808 93.5586 111.808ZM92.7874 121.143C92.7338 121.143 92.6856 121.121 92.6428 121.079C92.6106 121.046 92.5946 121.004 92.5946 120.95V113.109C92.5946 113.056 92.6106 113.013 92.6428 112.981C92.6856 112.938 92.7338 112.916 92.7874 112.916H94.2655C94.3191 112.916 94.3619 112.938 94.3941 112.981C94.4369 113.013 94.4583 113.056 94.4583 113.109V120.95C94.4583 121.004 94.4369 121.046 94.3941 121.079C94.3619 121.121 94.3191 121.143 94.2655 121.143H92.7874ZM100.532 112.804C101.399 112.804 102.09 113.061 102.604 113.575C103.129 114.089 103.392 114.791 103.392 115.68V120.95C103.392 121.004 103.37 121.046 103.327 121.079C103.295 121.121 103.252 121.143 103.199 121.143H101.721C101.667 121.143 101.619 121.121 101.576 121.079C101.544 121.046 101.528 121.004 101.528 120.95V116.066C101.528 115.573 101.389 115.171 101.11 114.861C100.832 114.561 100.462 114.411 100.001 114.411C99.5408 114.411 99.1659 114.561 98.8767 114.861C98.5982 115.161 98.459 115.557 98.459 116.05V120.95C98.459 121.004 98.4376 121.046 98.3947 121.079C98.3626 121.121 98.3198 121.143 98.2662 121.143H96.788C96.7345 121.143 96.6863 121.121 96.6434 121.079C96.6113 121.046 96.5952 121.004 96.5952 120.95V113.125C96.5952 113.072 96.6113 113.024 96.6434 112.981C96.6863 112.949 96.7345 112.933 96.788 112.933H98.2662C98.3198 112.933 98.3626 112.949 98.3947 112.981C98.4376 113.024 98.459 113.072 98.459 113.125V113.64C98.459 113.672 98.4697 113.693 98.4911 113.704C98.5126 113.714 98.5286 113.704 98.5393 113.672C98.9785 113.093 99.6426 112.804 100.532 112.804ZM112.196 116.114C112.239 116.382 112.261 116.682 112.261 117.014L112.244 117.512C112.244 117.64 112.18 117.704 112.052 117.704H107.023C106.969 117.704 106.942 117.731 106.942 117.785C106.974 118.138 107.023 118.379 107.087 118.508C107.344 119.279 107.971 119.67 108.967 119.681C109.695 119.681 110.274 119.381 110.702 118.781C110.745 118.717 110.798 118.685 110.863 118.685C110.906 118.685 110.943 118.701 110.975 118.733L111.971 119.552C112.068 119.627 112.084 119.713 112.02 119.809C111.687 120.281 111.243 120.645 110.686 120.902C110.14 121.159 109.529 121.287 108.854 121.287C108.019 121.287 107.307 121.1 106.717 120.725C106.139 120.35 105.716 119.825 105.448 119.15C105.202 118.572 105.079 117.769 105.079 116.74C105.079 116.119 105.143 115.616 105.271 115.23C105.486 114.48 105.887 113.886 106.476 113.447C107.076 113.018 107.794 112.804 108.629 112.804C110.74 112.804 111.928 113.907 112.196 116.114ZM108.629 114.411C108.233 114.411 107.901 114.512 107.633 114.716C107.376 114.909 107.194 115.182 107.087 115.535C107.023 115.718 106.98 115.953 106.958 116.242C106.937 116.296 106.958 116.323 107.023 116.323H110.284C110.338 116.323 110.365 116.296 110.365 116.242C110.343 115.975 110.311 115.771 110.268 115.632C110.172 115.246 109.979 114.946 109.69 114.732C109.411 114.518 109.058 114.411 108.629 114.411ZM116.888 121.239C116.213 121.239 115.618 121.137 115.104 120.934C114.601 120.741 114.21 120.468 113.931 120.114C113.653 119.772 113.514 119.386 113.514 118.958V118.813C113.514 118.76 113.53 118.711 113.562 118.668C113.605 118.636 113.653 118.62 113.707 118.62H115.12C115.174 118.62 115.217 118.636 115.249 118.668C115.292 118.711 115.313 118.76 115.313 118.813V118.845C115.313 119.113 115.458 119.349 115.747 119.552C116.047 119.745 116.422 119.841 116.872 119.841C117.3 119.841 117.648 119.756 117.916 119.584C118.184 119.402 118.318 119.177 118.318 118.909C118.318 118.663 118.205 118.476 117.98 118.347C117.766 118.229 117.413 118.101 116.92 117.962L116.309 117.769C115.763 117.608 115.303 117.437 114.928 117.255C114.553 117.072 114.237 116.821 113.98 116.499C113.723 116.189 113.594 115.787 113.594 115.294C113.594 114.545 113.889 113.95 114.478 113.511C115.067 113.061 115.843 112.836 116.807 112.836C117.461 112.836 118.034 112.938 118.527 113.141C119.019 113.356 119.4 113.645 119.667 114.009C119.935 114.384 120.069 114.807 120.069 115.278C120.069 115.332 120.048 115.38 120.005 115.423C119.973 115.455 119.93 115.471 119.876 115.471H118.511C118.457 115.471 118.409 115.455 118.366 115.423C118.334 115.38 118.318 115.332 118.318 115.278C118.318 115 118.179 114.77 117.9 114.587C117.632 114.395 117.263 114.298 116.791 114.298C116.374 114.298 116.031 114.373 115.763 114.523C115.506 114.684 115.378 114.903 115.378 115.182C115.378 115.439 115.501 115.632 115.747 115.76C116.004 115.9 116.427 116.05 117.016 116.21L117.37 116.307C117.938 116.478 118.414 116.649 118.8 116.821C119.185 117.003 119.512 117.249 119.78 117.56C120.048 117.881 120.182 118.294 120.182 118.797C120.182 119.558 119.882 120.152 119.282 120.58C118.682 121.02 117.884 121.239 116.888 121.239ZM124.648 121.239C123.973 121.239 123.379 121.137 122.865 120.934C122.361 120.741 121.97 120.468 121.692 120.114C121.413 119.772 121.274 119.386 121.274 118.958V118.813C121.274 118.76 121.29 118.711 121.322 118.668C121.365 118.636 121.413 118.62 121.467 118.62H122.881C122.934 118.62 122.977 118.636 123.009 118.668C123.052 118.711 123.074 118.76 123.074 118.813V118.845C123.074 119.113 123.218 119.349 123.507 119.552C123.807 119.745 124.182 119.841 124.632 119.841C125.061 119.841 125.409 119.756 125.676 119.584C125.944 119.402 126.078 119.177 126.078 118.909C126.078 118.663 125.966 118.476 125.741 118.347C125.526 118.229 125.173 118.101 124.68 117.962L124.07 117.769C123.523 117.608 123.063 117.437 122.688 117.255C122.313 117.072 121.997 116.821 121.74 116.499C121.483 116.189 121.354 115.787 121.354 115.294C121.354 114.545 121.649 113.95 122.238 113.511C122.827 113.061 123.604 112.836 124.568 112.836C125.221 112.836 125.794 112.938 126.287 113.141C126.78 113.356 127.16 113.645 127.428 114.009C127.695 114.384 127.829 114.807 127.829 115.278C127.829 115.332 127.808 115.38 127.765 115.423C127.733 115.455 127.69 115.471 127.637 115.471H126.271C126.217 115.471 126.169 115.455 126.126 115.423C126.094 115.38 126.078 115.332 126.078 115.278C126.078 115 125.939 114.77 125.66 114.587C125.393 114.395 125.023 114.298 124.552 114.298C124.134 114.298 123.791 114.373 123.523 114.523C123.266 114.684 123.138 114.903 123.138 115.182C123.138 115.439 123.261 115.632 123.507 115.76C123.764 115.9 124.188 116.05 124.777 116.21L125.13 116.307C125.698 116.478 126.174 116.649 126.56 116.821C126.946 117.003 127.272 117.249 127.54 117.56C127.808 117.881 127.942 118.294 127.942 118.797C127.942 119.558 127.642 120.152 127.042 120.58C126.442 121.02 125.644 121.239 124.648 121.239Z" fill="white"/>
<path d="M50.6571 143.794C50.5393 143.794 50.4643 143.74 50.4322 143.633L47.5883 132.756L47.5723 132.691C47.5723 132.595 47.6312 132.547 47.749 132.547H49.7413C49.8484 132.547 49.918 132.6 49.9502 132.708L51.4765 139.247C51.4872 139.29 51.5033 139.311 51.5247 139.311C51.5462 139.311 51.5622 139.29 51.5729 139.247L53.0511 132.724C53.0832 132.606 53.1529 132.547 53.26 132.547H55.2041C55.3219 132.547 55.3969 132.6 55.429 132.708L57.0357 139.247C57.0464 139.279 57.0625 139.3 57.0839 139.311C57.1053 139.311 57.1214 139.29 57.1321 139.247L58.6103 132.724C58.6424 132.606 58.712 132.547 58.8191 132.547H60.715C60.865 132.547 60.9239 132.616 60.8918 132.756L58.2568 143.633C58.2247 143.74 58.1497 143.794 58.0318 143.794H56.1199C56.0128 143.794 55.9431 143.74 55.911 143.633L54.2722 136.676C54.2615 136.633 54.2454 136.612 54.224 136.612C54.2026 136.612 54.1865 136.633 54.1758 136.676L52.6494 143.617C52.628 143.735 52.5584 143.794 52.4406 143.794H50.6571ZM62.4503 143.794C62.3967 143.794 62.3485 143.772 62.3057 143.729C62.2735 143.697 62.2575 143.654 62.2575 143.601V132.74C62.2575 132.686 62.2735 132.643 62.3057 132.611C62.3485 132.568 62.3967 132.547 62.4503 132.547H64.3301C64.3836 132.547 64.4265 132.568 64.4586 132.611C64.5015 132.643 64.5229 132.686 64.5229 132.74V143.601C64.5229 143.654 64.5015 143.697 64.4586 143.729C64.4265 143.772 64.3836 143.794 64.3301 143.794H62.4503ZM72.942 132.74C72.942 132.686 72.958 132.643 72.9902 132.611C73.033 132.568 73.0812 132.547 73.1348 132.547H75.0146C75.0682 132.547 75.111 132.568 75.1432 132.611C75.186 132.643 75.2074 132.686 75.2074 132.74V143.601C75.2074 143.654 75.186 143.697 75.1432 143.729C75.111 143.772 75.0682 143.794 75.0146 143.794H73.199C73.0919 143.794 73.017 143.751 72.9741 143.665L68.8128 136.789C68.7913 136.756 68.7699 136.746 68.7485 136.756C68.7271 136.756 68.7164 136.778 68.7164 136.821L68.7485 143.601C68.7485 143.654 68.7271 143.697 68.6842 143.729C68.6521 143.772 68.6093 143.794 68.5557 143.794H66.6759C66.6223 143.794 66.5741 143.772 66.5313 143.729C66.4991 143.697 66.4831 143.654 66.4831 143.601V132.74C66.4831 132.686 66.4991 132.643 66.5313 132.611C66.5741 132.568 66.6223 132.547 66.6759 132.547H68.4914C68.5985 132.547 68.6735 132.59 68.7164 132.675L72.8616 139.52C72.8831 139.552 72.9045 139.563 72.9259 139.552C72.9473 139.552 72.958 139.531 72.958 139.488L72.942 132.74ZM84.9279 132.547C84.9815 132.547 85.0243 132.568 85.0565 132.611C85.0993 132.643 85.1207 132.686 85.1207 132.74V134.314C85.1207 134.368 85.0993 134.411 85.0565 134.443C85.0243 134.486 84.9815 134.507 84.9279 134.507H82.0519C81.9984 134.507 81.9716 134.534 81.9716 134.587V143.601C81.9716 143.654 81.9502 143.697 81.9073 143.729C81.8752 143.772 81.8324 143.794 81.7788 143.794H79.899C79.8454 143.794 79.7972 143.772 79.7544 143.729C79.7222 143.697 79.7062 143.654 79.7062 143.601V134.587C79.7062 134.534 79.6794 134.507 79.6258 134.507H76.8302C76.7766 134.507 76.7284 134.486 76.6856 134.443C76.6534 134.411 76.6374 134.368 76.6374 134.314V132.74C76.6374 132.686 76.6534 132.643 76.6856 132.611C76.7284 132.568 76.7766 132.547 76.8302 132.547H84.9279ZM94.3753 134.298C94.3753 134.352 94.3592 134.395 94.3271 134.427C94.2842 134.47 94.236 134.491 94.1825 134.491H88.9125C88.859 134.491 88.8322 134.518 88.8322 134.571V137.062C88.8322 137.115 88.859 137.142 88.9125 137.142H92.3669C92.4205 137.142 92.4633 137.158 92.4955 137.19C92.5383 137.233 92.5597 137.281 92.5597 137.335V138.893C92.5597 138.947 92.5383 138.995 92.4955 139.038C92.4633 139.07 92.4205 139.086 92.3669 139.086H88.9125C88.859 139.086 88.8322 139.113 88.8322 139.166V141.769C88.8322 141.823 88.859 141.85 88.9125 141.85H94.1825C94.236 141.85 94.2842 141.866 94.3271 141.898C94.3592 141.941 94.3753 141.989 94.3753 142.042V143.601C94.3753 143.654 94.3592 143.697 94.3271 143.729C94.2842 143.772 94.236 143.794 94.1825 143.794H86.7596C86.706 143.794 86.6578 143.772 86.615 143.729C86.5828 143.697 86.5667 143.654 86.5667 143.601V132.74C86.5667 132.686 86.5828 132.643 86.615 132.611C86.6578 132.568 86.706 132.547 86.7596 132.547H94.1825C94.236 132.547 94.2842 132.568 94.3271 132.611C94.3592 132.643 94.3753 132.686 94.3753 132.74V134.298ZM102.12 143.794C102.012 143.794 101.937 143.746 101.895 143.649L99.8862 139.199C99.8648 139.156 99.8327 139.134 99.7899 139.134H98.2956C98.2421 139.134 98.2153 139.161 98.2153 139.215V143.601C98.2153 143.654 98.1939 143.697 98.151 143.729C98.1189 143.772 98.076 143.794 98.0225 143.794H96.1427C96.0891 143.794 96.0409 143.772 95.9981 143.729C95.9659 143.697 95.9498 143.654 95.9498 143.601V132.74C95.9498 132.686 95.9659 132.643 95.9981 132.611C96.0409 132.568 96.0891 132.547 96.1427 132.547H100.738C101.423 132.547 102.023 132.686 102.537 132.965C103.062 133.243 103.464 133.639 103.742 134.154C104.032 134.668 104.176 135.262 104.176 135.937C104.176 136.665 103.994 137.287 103.63 137.801C103.266 138.326 102.757 138.695 102.103 138.909C102.05 138.931 102.034 138.968 102.055 139.022L104.24 143.569C104.262 143.612 104.273 143.644 104.273 143.665C104.273 143.751 104.214 143.794 104.096 143.794H102.12ZM98.2956 134.491C98.2421 134.491 98.2153 134.518 98.2153 134.571V137.319C98.2153 137.372 98.2421 137.399 98.2956 137.399H100.4C100.85 137.399 101.214 137.265 101.493 136.997C101.782 136.73 101.927 136.382 101.927 135.953C101.927 135.525 101.782 135.171 101.493 134.893C101.214 134.625 100.85 134.491 100.4 134.491H98.2956ZM61.7433 156.856C61.7219 156.878 61.7165 156.899 61.7272 156.92C61.738 156.942 61.7594 156.953 61.7915 156.953H66.1457C66.1992 156.953 66.2474 156.969 66.2903 157.001C66.3224 157.044 66.3385 157.092 66.3385 157.145V158.704C66.3385 158.757 66.3224 158.8 66.2903 158.832C66.2474 158.875 66.1992 158.897 66.1457 158.897H58.9155C58.862 158.897 58.8138 158.875 58.7709 158.832C58.7388 158.8 58.7227 158.757 58.7227 158.704V157.226C58.7227 157.129 58.7549 157.049 58.8191 156.985C59.344 156.471 59.8796 155.914 60.4258 155.314C60.9721 154.703 61.3149 154.323 61.4541 154.173C61.754 153.82 62.0593 153.482 62.3699 153.161C63.3447 152.079 63.832 151.276 63.832 150.751C63.832 150.376 63.6981 150.065 63.4303 149.819C63.1626 149.583 62.8144 149.465 62.386 149.465C61.9575 149.465 61.6094 149.583 61.3416 149.819C61.0739 150.065 60.94 150.387 60.94 150.783V151.185C60.94 151.238 60.9185 151.286 60.8757 151.329C60.8436 151.361 60.8007 151.377 60.7472 151.377H58.8513C58.7977 151.377 58.7549 151.361 58.7227 151.329C58.6799 151.286 58.6585 151.238 58.6585 151.185V150.429C58.6906 149.851 58.8727 149.337 59.2047 148.887C59.5368 148.448 59.9759 148.11 60.5222 147.875C61.0792 147.639 61.7005 147.521 62.386 147.521C63.1465 147.521 63.8106 147.661 64.3783 147.939C64.9353 148.228 65.3691 148.614 65.6797 149.096C65.9796 149.578 66.1296 150.113 66.1296 150.703C66.1296 151.152 66.0171 151.613 65.7922 152.084C65.5673 152.556 65.2298 153.064 64.78 153.611C64.4479 154.028 64.0891 154.441 63.7035 154.848C63.3179 155.255 62.7448 155.844 61.9843 156.615L61.7433 156.856ZM71.5602 159.073C70.382 159.073 69.4501 158.741 68.7646 158.077C68.0791 157.424 67.7363 156.529 67.7363 155.394V151.152C67.7363 150.038 68.0791 149.155 68.7646 148.501C69.4501 147.848 70.382 147.521 71.5602 147.521C72.7385 147.521 73.6757 147.848 74.3719 148.501C75.0575 149.155 75.4002 150.038 75.4002 151.152V155.394C75.4002 156.529 75.0575 157.424 74.3719 158.077C73.6757 158.741 72.7385 159.073 71.5602 159.073ZM71.5602 157.129C72.0422 157.129 72.4278 156.979 72.717 156.679C72.9955 156.39 73.1348 155.999 73.1348 155.507V151.088C73.1348 150.595 72.9955 150.204 72.717 149.915C72.4278 149.615 72.0422 149.465 71.5602 149.465C71.0889 149.465 70.714 149.615 70.4355 149.915C70.1463 150.204 70.0017 150.595 70.0017 151.088V155.507C70.0017 155.999 70.1463 156.39 70.4355 156.679C70.714 156.979 71.0889 157.129 71.5602 157.129ZM79.899 156.856C79.8775 156.878 79.8722 156.899 79.8829 156.92C79.8936 156.942 79.915 156.953 79.9472 156.953H84.3013C84.3549 156.953 84.4031 156.969 84.4459 157.001C84.478 157.044 84.4941 157.092 84.4941 157.145V158.704C84.4941 158.757 84.478 158.8 84.4459 158.832C84.4031 158.875 84.3549 158.897 84.3013 158.897H77.0712C77.0176 158.897 76.9748 158.875 76.9426 158.832C76.8998 158.8 76.8784 158.757 76.8784 158.704V157.226C76.8784 157.129 76.9105 157.049 76.9748 156.985C77.4996 156.471 78.0352 155.914 78.5815 155.314C79.1278 154.703 79.4705 154.323 79.6098 154.173C79.9097 153.82 80.215 153.482 80.5256 153.161C81.5003 152.079 81.9877 151.276 81.9877 150.751C81.9877 150.376 81.8538 150.065 81.586 149.819C81.3182 149.583 80.9701 149.465 80.5416 149.465C80.1132 149.465 79.7651 149.583 79.4973 149.819C79.2295 150.065 79.0956 150.387 79.0956 150.783V151.185C79.0956 151.238 79.0796 151.286 79.0474 151.329C79.0046 151.361 78.9564 151.377 78.9028 151.377H77.0069C76.9534 151.377 76.9105 151.361 76.8784 151.329C76.8355 151.286 76.8141 151.238 76.8141 151.185V150.429C76.8462 149.851 77.0283 149.337 77.3604 148.887C77.6924 148.448 78.137 148.11 78.6939 147.875C79.2402 147.639 79.8561 147.521 80.5416 147.521C81.3021 147.521 81.9662 147.661 82.5339 147.939C83.0909 148.228 83.5247 148.614 83.8354 149.096C84.1353 149.578 84.2852 150.113 84.2852 150.703C84.2852 151.152 84.1728 151.613 83.9478 152.084C83.7229 152.556 83.3855 153.064 82.9356 153.611C82.6036 154.028 82.2447 154.441 81.8591 154.848C81.4735 155.255 80.9005 155.844 80.14 156.615L79.899 156.856ZM92.5919 153.53C92.8061 154.023 92.9132 154.591 92.9132 155.233C92.9132 155.812 92.8168 156.347 92.624 156.84C92.3669 157.526 91.9385 158.061 91.3386 158.447C90.7281 158.832 90.0104 159.025 89.1857 159.025C88.3716 159.025 87.6593 158.822 87.0488 158.415C86.4275 158.008 85.983 157.456 85.7152 156.76C85.5652 156.342 85.4796 155.892 85.4581 155.41C85.4581 155.282 85.5224 155.217 85.6509 155.217H87.5468C87.6754 155.217 87.7396 155.282 87.7396 155.41C87.7825 155.764 87.8414 156.026 87.9164 156.197C88.0128 156.476 88.1735 156.69 88.3984 156.84C88.6126 157.001 88.8697 157.081 89.1696 157.081C89.7694 157.081 90.1818 156.819 90.4068 156.294C90.5567 155.972 90.6317 155.598 90.6317 155.169C90.6317 154.666 90.5514 154.253 90.3907 153.932C90.1443 153.429 89.7319 153.177 89.1535 153.177C89.0357 153.177 88.9125 153.209 88.784 153.273C88.6555 153.348 88.5001 153.45 88.318 153.579C88.2752 153.611 88.2324 153.627 88.1895 153.627C88.1252 153.627 88.077 153.595 88.0449 153.53L87.097 152.197C87.0755 152.165 87.0648 152.127 87.0648 152.084C87.0648 152.02 87.0863 151.966 87.1291 151.924L89.6837 149.69C89.7052 149.669 89.7159 149.647 89.7159 149.626C89.7052 149.605 89.6837 149.594 89.6516 149.594H85.8759C85.8223 149.594 85.7795 149.572 85.7473 149.53C85.7045 149.498 85.6831 149.455 85.6831 149.401V147.843C85.6831 147.789 85.7045 147.746 85.7473 147.714C85.7795 147.671 85.8223 147.65 85.8759 147.65H92.5758C92.6293 147.65 92.6775 147.671 92.7204 147.714C92.7525 147.746 92.7686 147.789 92.7686 147.843V149.61C92.7686 149.696 92.7311 149.776 92.6561 149.851L90.5514 151.779C90.5299 151.8 90.5246 151.822 90.5353 151.843C90.5353 151.865 90.5567 151.875 90.5996 151.875C91.5314 152.058 92.1955 152.609 92.5919 153.53Z" fill="#252530"/>
</svg>
