<svg width="94" height="122" viewBox="0 0 94 122" fill="none" xmlns="http://www.w3.org/2000/svg">
<g clip-path="url(#clip0_1462_38611)">
<path d="M8.1001 89.9L47.6001 110L85.6001 89.9V11.3H8.1001V89.9Z" fill="white"/>
<path d="M86.4 11.6L7.30005 91.3L48.3 111.6L86.4 92.1V11.6Z" fill="#F2F3F2"/>
<path d="M5.5 37.5V91.6L6.9 92.3L46.4 112.4L47.6 113L48.8 112.4L86.9 92.3L88.3 91.6V8.70001H5.5V37.5ZM8.1 90.1V11.3H85.7V90.1L47.6 110.2L8.1 90.1Z" fill="#DCDEDC"/>
<path d="M46.9001 12.6C47.3001 12.6 47.7 12.6 48.1 12.7L46.9001 15C45.1001 14.9 43.5001 16.3 43.4001 18.1C43.3001 19.9 44.7 21.5 46.5 21.6H46.9001C47.7001 21.6 48.5 21.3 49.1 20.8L50.4001 23C49.4001 23.7 48.2001 24.1 46.9001 24.1C43.7001 24.2 41.0001 21.8 40.9001 18.6C40.8001 15.4 43.2001 12.7 46.4001 12.6H46.9001V12.6ZM51 17.5L52.5 20L51 22.4L49.6 20H46.7001L48.2001 17.5H51ZM48.6 16.6C48.6 16.2 48.7001 15.8 48.9001 15.5C49.1001 15.2 49.5 14.9 49.8 14.7L50 14.6C50.4 14.4 50.5 14.3 50.5 14.1C50.5 13.9 50.2 13.7 50 13.7C49.6 13.7 49.3 13.9 49.1 14.3L48.6 13.8C48.7 13.6 48.9 13.4 49.1 13.2C49.4 13 49.7 13 50 13C50.3 13 50.7001 13.1 50.9001 13.3C51.1001 13.5 51.3 13.8 51.3 14.1C51.3 14.6 51.0001 15 50.4001 15.2L50.1 15.4C49.8 15.6 49.6 15.7 49.5 16H51.3V16.7L48.6 16.6V16.6ZM46.9001 29.1L56.4001 23.7V8.70001H37.3V23.6L46.9001 29.1Z" fill="#FF492C"/>
<path d="M23.3001 49.1V40.3C23.3001 40.2 23.4001 40.1 23.5001 40.1H25.8001C25.9001 40.1 26.0001 40.2 26.0001 40.3V49.1C26.0001 50.4 26.9001 51.4 28.3001 51.4C29.7001 51.4 30.6001 50.5 30.6001 49.1V40.3C30.6001 40.2 30.7001 40.1 30.8001 40.1H33.1001C33.2001 40.1 33.3001 40.2 33.3001 40.3V49.1C33.3001 51.9 31.3001 53.7 28.3001 53.7C25.3001 53.7 23.3001 51.8 23.3001 49.1V49.1ZM35.0001 50.8V50.6C35.0001 50.5 35.1001 50.4 35.2001 50.4H37.3001C37.4001 50.4 37.5001 50.5 37.5001 50.6C37.5001 51.2 38.2001 51.6 39.2001 51.6C40.1001 51.6 40.7001 51.2 40.7001 50.7C40.7001 49.9 39.2001 49.9 37.8001 49.4C36.5001 49 35.1001 48.3 35.1001 46.6C35.1001 44.7 36.7001 43.5 39.2001 43.5C41.7001 43.5 43.3001 44.8 43.3001 46.6C43.3001 46.7 43.2001 46.8 43.1001 46.8H41.0001C40.9001 46.8 40.8001 46.7 40.8001 46.6C40.8001 46 40.2001 45.6 39.2001 45.6C38.4001 45.6 37.8001 45.9 37.8001 46.5C37.8001 47.3 39.1001 47.3 40.6001 47.8C42.1001 48.2 43.6001 48.9 43.6001 50.7C43.6001 52.6 41.9001 53.7 39.4001 53.7C36.7001 53.7 35.0001 52.5 35.0001 50.8V50.8ZM53.9001 49.2C53.9001 49.4 53.8001 49.4 53.6001 49.4H47.6001C47.5001 49.4 47.5001 49.4 47.5001 49.5C47.5001 49.8 47.6001 50 47.7001 50.3C48.0001 51 48.6001 51.4 49.7001 51.4C50.6001 51.4 51.2001 51 51.7001 50.4C51.8001 50.3 51.9001 50.2 52.0001 50.4L53.4001 51.8C53.5001 51.9 53.5001 52 53.4001 52.1C52.5001 53.2 51.1001 53.8 49.5001 53.8C47.3001 53.8 45.8001 52.7 45.1001 50.9C44.8001 50.2 44.7001 49.5 44.7001 48.5C44.7001 47.8 44.8001 47.1 45.0001 46.5C45.6001 44.7 47.1001 43.5 49.2001 43.5C51.8001 43.5 53.4001 45.2 53.7001 47.6C53.9001 48.1 53.9001 48.6 53.9001 49.2V49.2ZM47.7001 46.9C47.6001 47.1 47.6001 47.3 47.6001 47.5C47.6001 47.6 47.6001 47.6 47.7001 47.6H51.0001C51.1001 47.6 51.1001 47.6 51.1001 47.5C51.1001 47.3 51.0001 47.1 51.0001 47C50.8001 46.2 50.2001 45.8 49.3001 45.8C48.5001 45.8 48.0001 46.2 47.7001 46.9ZM61.7001 43.8C61.8001 43.9 61.8001 44 61.8001 44.1L61.4001 46.3C61.4001 46.5 61.3001 46.5 61.1001 46.4C60.8001 46.3 60.4001 46.3 60.0001 46.3C59.1001 46.4 58.3001 47 58.3001 48V53.3C58.3001 53.4 58.2001 53.5 58.1001 53.5H55.8001C55.7001 53.5 55.6001 53.4 55.6001 53.3V43.9C55.6001 43.8 55.7001 43.7 55.8001 43.7H58.1001C58.2001 43.7 58.3001 43.8 58.3001 43.9V44.6C58.3001 44.7 58.4001 44.7 58.4001 44.7C58.9001 44 59.6001 43.5 60.5001 43.5C61.1001 43.5 61.4001 43.6 61.7001 43.8V43.8ZM62.5001 50.8V50.6C62.5001 50.5 62.6001 50.4 62.7001 50.4H64.8001C64.9001 50.4 65.0001 50.5 65.0001 50.6C65.0001 51.2 65.7001 51.6 66.7001 51.6C67.6001 51.6 68.2001 51.2 68.2001 50.7C68.2001 49.9 66.7001 49.9 65.3001 49.4C64.0001 49 62.6001 48.3 62.6001 46.6C62.6001 44.7 64.2001 43.5 66.7001 43.5C69.2001 43.5 70.8001 44.8 70.8001 46.6C70.8001 46.7 70.7001 46.8 70.6001 46.8H68.5001C68.4001 46.8 68.3001 46.7 68.3001 46.6C68.3001 46 67.7001 45.6 66.7001 45.6C65.9001 45.6 65.3001 45.9 65.3001 46.5C65.3001 47.3 66.6001 47.3 68.1001 47.8C69.6001 48.2 71.1001 48.9 71.1001 50.7C71.1001 52.6 69.4001 53.7 66.9001 53.7C64.2001 53.7 62.5001 52.5 62.5001 50.8V50.8ZM14.6001 69.5V56.5C14.6001 56.4 14.7001 56.3 14.8001 56.3H17.1001C17.2001 56.3 17.3001 56.4 17.3001 56.5V67.3C17.3001 67.4 17.3001 67.4 17.4001 67.4H23.7001C23.8001 67.4 23.9001 67.5 23.9001 67.6V69.5C23.9001 69.6 23.8001 69.7 23.7001 69.7H14.8001C14.7001 69.7 14.6001 69.6 14.6001 69.5ZM25.5001 66.7C25.3001 66.1 25.2001 65.4 25.2001 64.7C25.2001 64 25.3001 63.2 25.5001 62.7C26.1001 60.8 27.7001 59.7 29.9001 59.7C32.0001 59.7 33.6001 60.9 34.2001 62.7C34.4001 63.3 34.5001 64 34.5001 64.7C34.5001 65.4 34.4001 66.1 34.2001 66.6C33.6001 68.6 32.0001 69.8 29.9001 69.8C27.7001 69.9 26.0001 68.7 25.5001 66.7V66.7ZM31.6001 66.1C31.7001 65.7 31.8001 65.2 31.8001 64.8C31.8001 64.3 31.7001 63.8 31.6001 63.4C31.3001 62.5 30.7001 62 29.9001 62C29.0001 62 28.4001 62.5 28.2001 63.4C28.0001 63.7 28.0001 64.2 28.0001 64.8C28.0001 65.3 28.0001 65.8 28.1001 66.1C28.4001 67 29.0001 67.5 29.9001 67.5C30.7001 67.6 31.3001 67 31.6001 66.1V66.1ZM38.2001 69.5L35.1001 60C35.0001 59.8 35.1001 59.7 35.3001 59.7H37.8001C37.9001 59.7 38.0001 59.8 38.1001 59.9L39.7001 65.7C39.7001 65.8 39.8001 65.8 39.8001 65.7L41.4001 59.9C41.4001 59.8 41.5001 59.7 41.7001 59.7H44.2001C44.4001 59.7 44.5001 59.8 44.4001 60L41.3001 69.4C41.3001 69.5 41.2001 69.6 41.0001 69.6H38.5001C38.3001 69.7 38.2001 69.7 38.2001 69.5V69.5ZM54.0001 65.4C54.0001 65.6 53.9001 65.6 53.7001 65.6H47.7001C47.6001 65.6 47.6001 65.6 47.6001 65.7C47.6001 66 47.7001 66.2 47.8001 66.5C48.1001 67.2 48.7001 67.6 49.8001 67.6C50.7001 67.6 51.3001 67.2 51.8001 66.6C51.9001 66.5 52.0001 66.4 52.1001 66.6L53.5001 68C53.6001 68.1 53.6001 68.2 53.5001 68.3C52.6001 69.4 51.2001 70 49.6001 70C47.4001 70 45.9001 68.9 45.2001 67.1C44.9001 66.4 44.8001 65.7 44.8001 64.7C44.8001 64 44.9001 63.3 45.1001 62.7C45.7001 60.9 47.2001 59.7 49.3001 59.7C51.9001 59.7 53.5001 61.4 53.8001 63.8C54.0001 64.3 54.0001 64.8 54.0001 65.4V65.4ZM47.8001 63.1C47.7001 63.3 47.7001 63.5 47.7001 63.7C47.7001 63.8 47.7001 63.8 47.8001 63.8H51.1001C51.2001 63.8 51.2001 63.8 51.2001 63.7C51.2001 63.5 51.1001 63.3 51.1001 63.2C50.9001 62.4 50.3001 62 49.4001 62C48.5001 62 48.0001 62.4 47.8001 63.1V63.1ZM59.6001 65.3V56.5C59.6001 56.4 59.7001 56.3 59.8001 56.3H62.1001C62.2001 56.3 62.3001 56.4 62.3001 56.5V65.3C62.3001 66.6 63.2001 67.6 64.6001 67.6C66.0001 67.6 66.9001 66.7 66.9001 65.3V56.5C66.9001 56.4 67.0001 56.3 67.1001 56.3H69.4001C69.5001 56.3 69.6001 56.4 69.6001 56.5V65.3C69.6001 68.1 67.6001 69.9 64.6001 69.9C61.6001 69.9 59.6001 68 59.6001 65.3ZM71.3001 67V66.8C71.3001 66.7 71.4001 66.6 71.5001 66.6H73.6001C73.7001 66.6 73.8001 66.7 73.8001 66.8C73.8001 67.4 74.5001 67.8 75.5001 67.8C76.4001 67.8 77.0001 67.4 77.0001 66.9C77.0001 66.1 75.5001 66.1 74.1001 65.6C72.8001 65.2 71.4001 64.5 71.4001 62.8C71.4001 60.9 73.0001 59.7 75.5001 59.7C78.0001 59.7 79.6001 61 79.6001 62.8C79.6001 62.9 79.5001 63 79.4001 63H77.3001C77.2001 63 77.1001 62.9 77.1001 62.8C77.1001 62.2 76.5001 61.8 75.5001 61.8C74.7001 61.8 74.1001 62.1 74.1001 62.7C74.1001 63.5 75.4001 63.5 76.9001 64C78.4001 64.4 79.9001 65.1 79.9001 66.9C79.9001 68.8 78.2001 69.9 75.7001 69.9C73.0001 69.9 71.3001 68.7 71.3001 67V67Z" fill="#252530"/>
<path d="M19.3 81.2H39.3V82H19.3V81.2ZM55.1 81.2H75.1V82H55.1V81.2Z" fill="#DCDEDC"/>
<path d="M42.4001 80.3L45.5001 79.8L47.1001 76.7L48.6001 79.7L51.9001 80.3L49.6001 82.6L50.1001 85.9L47.1001 84.5L44.1001 85.9L44.5001 82.6L42.4001 80.3Z" fill="#FF492C"/>
</g>
<defs>
<clipPath id="clip0_1462_38611">
<rect width="93.8" height="121.8" fill="white"/>
</clipPath>
</defs>
</svg>
