<svg width="584" height="181" viewBox="0 0 584 181" fill="none" xmlns="http://www.w3.org/2000/svg">
<rect x="1" y="0.5" width="180" height="180" rx="15.5" fill="#292929" stroke="url(#paint0_linear_1726_45523)"/>
<path d="M1.5 15.37C1.5 7.43367 7.93367 1 15.87 1H92.5V10.63C92.5 18.5663 86.0663 25 78.13 25H1.5V15.37Z" fill="#253F35"/>
<path d="M16.2615 19V9.2H14.8055V19H16.2615ZM19.7068 19V11.468L24.4388 19H26.0488V9.2H24.5928V16.746L19.8748 9.2H18.2508V19H19.7068ZM32.3799 19.112C34.6479 19.112 36.3979 17.768 36.6079 15.85H35.1379C34.9839 16.998 33.8219 17.824 32.3659 17.824C30.4619 17.824 29.0899 16.522 29.0899 14.1C29.0899 11.678 30.4619 10.376 32.3659 10.376C33.7939 10.376 34.9419 11.202 35.1099 12.35H36.6359C36.3699 10.432 34.6059 9.088 32.3799 9.088C29.8879 9.088 27.5919 10.74 27.5919 14.1C27.5919 17.46 29.8599 19.112 32.3799 19.112ZM44.2914 19V17.712H39.5174V9.2H38.0614V19H44.2914ZM48.6317 19.112C50.8857 19.112 52.3977 17.81 52.3977 15.57V9.2H50.9977V15.612C50.9977 17.012 50.0457 17.81 48.6317 17.81C47.2317 17.81 46.2797 17.012 46.2797 15.612V9.2H44.8797V15.57C44.8797 17.81 46.3917 19.112 48.6317 19.112ZM57.2179 19C59.9479 19 62.1599 17.292 62.1599 14.1C62.1599 10.908 59.9479 9.2 57.2179 9.2H54.2079V19H57.2179ZM55.6639 10.488H57.1339C58.9539 10.488 60.6619 11.51 60.6619 14.1C60.6619 16.69 58.9539 17.712 57.1339 17.712H55.6639V10.488ZM70.1361 19V17.712H65.1521V14.59H69.0581V13.302H65.1521V10.488H69.9821V9.2H63.6961V19H70.1361ZM74.7042 19C77.4342 19 79.6462 17.292 79.6462 14.1C79.6462 10.908 77.4342 9.2 74.7042 9.2H71.6942V19H74.7042ZM73.1502 10.488H74.6202C76.4402 10.488 78.1482 11.51 78.1482 14.1C78.1482 16.69 76.4402 17.712 74.6202 17.712H73.1502V10.488Z" fill="#13B272"/>
<rect x="55" y="39" width="72" height="72" rx="36" fill="#60422F"/>
<path d="M83.7463 69.6992L75.416 75.9481L83.7463 82.1969" stroke="#FFBC8B" stroke-width="2.83333" stroke-linecap="round" stroke-linejoin="round"/>
<path d="M98.25 69.6992L106.583 75.9481L98.25 82.1969" stroke="#FFBC8B" stroke-width="2.83333" stroke-linecap="round" stroke-linejoin="round"/>
<path d="M93.0811 65.5312L88.916 86.3615" stroke="#FFBC8B" stroke-width="2.83333" stroke-linecap="round" stroke-linejoin="round"/>
<path d="M34.6675 128.4C34.5235 129.768 33.9475 130.164 32.9755 130.164H32.0755V132.216H33.0655C33.5875 132.216 34.3255 132.054 34.5595 131.73V141H36.9355V128.4H34.6675ZM44.0254 141.144C47.1574 141.144 48.5974 138.984 48.5974 135.132V134.268C48.5974 130.416 47.1574 128.256 44.0254 128.256H43.3054C40.1734 128.256 38.7514 130.416 38.7514 134.268V135.132C38.7514 138.984 40.1734 141.144 43.3054 141.144H44.0254ZM43.4134 139.074C41.9914 139.074 41.1274 137.976 41.1274 135.762V133.638C41.1274 131.406 41.9914 130.308 43.4134 130.308H43.9174C45.3394 130.308 46.2214 131.406 46.2214 133.638V135.762C46.2214 137.976 45.3394 139.074 43.9174 139.074H43.4134ZM55.2536 141.144C58.3856 141.144 59.8256 138.984 59.8256 135.132V134.268C59.8256 130.416 58.3856 128.256 55.2536 128.256H54.5336C51.4016 128.256 49.9796 130.416 49.9796 134.268V135.132C49.9796 138.984 51.4016 141.144 54.5336 141.144H55.2536ZM54.6416 139.074C53.2196 139.074 52.3556 137.976 52.3556 135.762V133.638C52.3556 131.406 53.2196 130.308 54.6416 130.308H55.1456C56.5676 130.308 57.4496 131.406 57.4496 133.638V135.762C57.4496 137.976 56.5676 139.074 55.1456 139.074H54.6416ZM66.4818 141.144C69.6138 141.144 71.0538 138.984 71.0538 135.132V134.268C71.0538 130.416 69.6138 128.256 66.4818 128.256H65.7618C62.6298 128.256 61.2078 130.416 61.2078 134.268V135.132C61.2078 138.984 62.6298 141.144 65.7618 141.144H66.4818ZM65.8698 139.074C64.4478 139.074 63.5838 137.976 63.5838 135.762V133.638C63.5838 131.406 64.4478 130.308 65.8698 130.308H66.3738C67.7958 130.308 68.6778 131.406 68.6778 133.638V135.762C68.6778 137.976 67.7958 139.074 66.3738 139.074H65.8698ZM77.746 133.692H81.148V135.618H77.746V139.002H75.82V135.618H72.418V133.692H75.82V130.272H77.746V133.692ZM95.3143 141V138.93H89.1043V135.564H93.9283V133.512H89.1043V130.452H95.1163V128.4H86.7283V141H95.3143ZM98.9877 141V135.798C98.9877 134.52 99.7257 133.674 100.896 133.674C101.958 133.674 102.624 134.52 102.624 135.798V141H104.82V135.798C104.82 134.52 105.558 133.674 106.746 133.674C107.808 133.674 108.474 134.52 108.474 135.798V141H110.67V135.132C110.67 133.206 109.41 131.784 107.448 131.784C106.008 131.784 104.856 132.576 104.442 133.512C104.046 132.396 103.056 131.784 101.616 131.784C100.338 131.784 99.4377 132.432 98.9877 133.35V131.928H96.7737V141H98.9877ZM117.417 141.144C120.135 141.144 121.737 139.236 121.737 136.464C121.737 133.692 120.135 131.784 117.453 131.784C116.283 131.784 115.311 132.288 114.789 133.026V128.04H112.593V141H114.789V139.866C115.311 140.658 116.319 141.144 117.417 141.144ZM117.093 139.236C115.617 139.236 114.645 138.138 114.645 136.464C114.645 134.79 115.617 133.692 117.093 133.692C118.569 133.692 119.541 134.79 119.541 136.464C119.541 138.138 118.569 139.236 117.093 139.236ZM129.308 137.976C129.074 138.84 128.336 139.308 127.202 139.308C125.798 139.308 124.862 138.372 124.7 136.914H131.396C131.414 136.734 131.432 136.464 131.432 136.158C131.432 133.998 130.064 131.784 127.022 131.784C124.052 131.784 122.576 134.034 122.576 136.428C122.576 138.804 124.232 141.144 127.202 141.144C129.434 141.144 131.126 139.902 131.468 137.976H129.308ZM127.022 133.44C128.336 133.44 129.128 134.304 129.218 135.456H124.754C124.988 134.088 125.78 133.44 127.022 133.44ZM136.613 141.144C137.711 141.144 138.719 140.658 139.241 139.866V141H141.437V128.04H139.241V133.026C138.719 132.288 137.765 131.784 136.577 131.784C133.895 131.784 132.293 133.692 132.293 136.464C132.293 139.236 133.895 141.144 136.613 141.144ZM136.937 139.236C135.461 139.236 134.489 138.138 134.489 136.464C134.489 134.79 135.461 133.692 136.937 133.692C138.413 133.692 139.385 134.79 139.385 136.464C139.385 138.138 138.413 139.236 136.937 139.236ZM146.632 141.144C148.756 141.144 150.142 140.028 150.142 138.318C150.142 134.214 145.102 136.374 145.102 134.412C145.102 133.8 145.624 133.44 146.416 133.44C147.118 133.44 147.892 133.872 148.018 134.718H150.034C149.944 132.954 148.486 131.784 146.362 131.784C144.49 131.784 143.104 132.9 143.104 134.484C143.104 138.318 148.072 136.392 148.072 138.408C148.072 138.948 147.496 139.38 146.632 139.38C145.642 139.38 144.976 138.84 144.886 137.976H142.87C142.978 139.92 144.436 141.144 146.632 141.144Z" fill="#F8FAFF"/>
<rect x="202" y="0.5" width="180" height="180" rx="15.5" fill="#292929" stroke="url(#paint1_linear_1726_45523)"/>
<path d="M202.5 15.37C202.5 7.43367 208.934 1 216.87 1H293.5V10.63C293.5 18.5663 287.066 25 279.13 25H202.5V15.37Z" fill="#253F35"/>
<path d="M217.262 19V9.2H215.806V19H217.262ZM220.707 19V11.468L225.439 19H227.049V9.2H225.593V16.746L220.875 9.2H219.251V19H220.707ZM233.38 19.112C235.648 19.112 237.398 17.768 237.608 15.85H236.138C235.984 16.998 234.822 17.824 233.366 17.824C231.462 17.824 230.09 16.522 230.09 14.1C230.09 11.678 231.462 10.376 233.366 10.376C234.794 10.376 235.942 11.202 236.11 12.35H237.636C237.37 10.432 235.606 9.088 233.38 9.088C230.888 9.088 228.592 10.74 228.592 14.1C228.592 17.46 230.86 19.112 233.38 19.112ZM245.291 19V17.712H240.517V9.2H239.061V19H245.291ZM249.632 19.112C251.886 19.112 253.398 17.81 253.398 15.57V9.2H251.998V15.612C251.998 17.012 251.046 17.81 249.632 17.81C248.232 17.81 247.28 17.012 247.28 15.612V9.2H245.88V15.57C245.88 17.81 247.392 19.112 249.632 19.112ZM258.218 19C260.948 19 263.16 17.292 263.16 14.1C263.16 10.908 260.948 9.2 258.218 9.2H255.208V19H258.218ZM256.664 10.488H258.134C259.954 10.488 261.662 11.51 261.662 14.1C261.662 16.69 259.954 17.712 258.134 17.712H256.664V10.488ZM271.136 19V17.712H266.152V14.59H270.058V13.302H266.152V10.488H270.982V9.2H264.696V19H271.136ZM275.704 19C278.434 19 280.646 17.292 280.646 14.1C280.646 10.908 278.434 9.2 275.704 9.2H272.694V19H275.704ZM274.15 10.488H275.62C277.44 10.488 279.148 11.51 279.148 14.1C279.148 16.69 277.44 17.712 275.62 17.712H274.15V10.488Z" fill="#13B272"/>
<rect x="256" y="39" width="72" height="72" rx="36" fill="#114633"/>
<path d="M292 63.8875C291.125 63.8875 290.374 63.574 289.747 62.9469C289.12 62.3198 288.806 61.5688 288.806 60.6938C288.806 59.8188 289.12 59.0677 289.747 58.4406C290.374 57.8135 291.125 57.5 292 57.5C292.875 57.5 293.626 57.8135 294.253 58.4406C294.88 59.0677 295.194 59.8188 295.194 60.6938C295.194 61.5688 294.88 62.3198 294.253 62.9469C293.626 63.574 292.875 63.8875 292 63.8875ZM288.588 92.5C288.208 92.5 287.895 92.376 287.647 92.1281C287.399 91.8802 287.275 91.5667 287.275 91.1875V69.1813H277.562C277.183 69.1813 276.87 69.0573 276.622 68.8094C276.374 68.5615 276.25 68.2479 276.25 67.8688C276.25 67.4896 276.374 67.176 276.622 66.9281C276.87 66.6802 277.183 66.5563 277.562 66.5563H306.438C306.817 66.5563 307.13 66.6802 307.378 66.9281C307.626 67.176 307.75 67.4896 307.75 67.8688C307.75 68.2479 307.626 68.5615 307.378 68.8094C307.13 69.0573 306.817 69.1813 306.438 69.1813H296.725V91.1875C296.725 91.5667 296.601 91.8802 296.353 92.1281C296.105 92.376 295.792 92.5 295.412 92.5C295.033 92.5 294.72 92.376 294.472 92.1281C294.224 91.8802 294.1 91.5667 294.1 91.1875V81.125H289.9V91.1875C289.9 91.5667 289.776 91.8802 289.528 92.1281C289.28 92.376 288.967 92.5 288.588 92.5Z" fill="#46D39A"/>
<path d="M247.345 139L243.025 127.8H241.041L236.737 139H238.913L239.873 136.392H244.193L245.153 139H247.345ZM242.049 130.504L243.553 134.6H240.545L242.049 130.504ZM251.747 139.128C253.827 139.128 255.395 137.864 255.651 136.104H253.667C253.475 136.904 252.755 137.432 251.827 137.432C250.451 137.432 249.699 136.376 249.699 134.968C249.699 133.56 250.435 132.504 251.795 132.504C252.723 132.504 253.507 133.08 253.651 133.88H255.603C255.427 132.024 253.779 130.808 251.747 130.808C249.235 130.808 247.651 132.664 247.651 134.968C247.651 137.272 249.235 139.128 251.747 139.128ZM260.575 139.128C262.655 139.128 264.223 137.864 264.479 136.104H262.495C262.303 136.904 261.583 137.432 260.655 137.432C259.279 137.432 258.527 136.376 258.527 134.968C258.527 133.56 259.263 132.504 260.623 132.504C261.551 132.504 262.335 133.08 262.479 133.88H264.431C264.255 132.024 262.607 130.808 260.575 130.808C258.063 130.808 256.479 132.664 256.479 134.968C256.479 137.272 258.063 139.128 260.575 139.128ZM271.291 136.312C271.083 137.08 270.427 137.496 269.419 137.496C268.171 137.496 267.339 136.664 267.195 135.368H273.147C273.163 135.208 273.179 134.968 273.179 134.696C273.179 132.776 271.963 130.808 269.259 130.808C266.619 130.808 265.307 132.808 265.307 134.936C265.307 137.048 266.779 139.128 269.419 139.128C271.403 139.128 272.907 138.024 273.211 136.312H271.291ZM269.259 132.28C270.427 132.28 271.131 133.048 271.211 134.072H267.243C267.451 132.856 268.155 132.28 269.259 132.28ZM277.37 139.128C279.258 139.128 280.49 138.136 280.49 136.616C280.49 132.968 276.01 134.888 276.01 133.144C276.01 132.6 276.474 132.28 277.178 132.28C277.802 132.28 278.49 132.664 278.602 133.416H280.394C280.314 131.848 279.018 130.808 277.13 130.808C275.466 130.808 274.234 131.8 274.234 133.208C274.234 136.616 278.65 134.904 278.65 136.696C278.65 137.176 278.138 137.56 277.37 137.56C276.49 137.56 275.898 137.08 275.818 136.312H274.026C274.122 138.04 275.418 139.128 277.37 139.128ZM284.776 139.128C286.664 139.128 287.896 138.136 287.896 136.616C287.896 132.968 283.416 134.888 283.416 133.144C283.416 132.6 283.88 132.28 284.584 132.28C285.208 132.28 285.896 132.664 286.008 133.416H287.8C287.72 131.848 286.424 130.808 284.536 130.808C282.872 130.808 281.64 131.8 281.64 133.208C281.64 136.616 286.056 134.904 286.056 136.696C286.056 137.176 285.544 137.56 284.776 137.56C283.896 137.56 283.304 137.08 283.224 136.312H281.432C281.528 138.04 282.824 139.128 284.776 139.128ZM298.019 139.128C300.771 139.128 302.819 137.544 303.043 135.224H300.931C300.739 136.44 299.555 137.288 298.019 137.288C296.067 137.288 294.595 135.944 294.595 133.4C294.595 130.856 296.067 129.496 298.019 129.496C299.523 129.496 300.707 130.344 300.867 131.576H303.075C302.771 129.256 300.723 127.672 298.019 127.672C295.091 127.672 292.467 129.592 292.467 133.4C292.467 137.208 295.043 139.128 298.019 139.128ZM308.188 139.128C310.636 139.128 312.396 137.368 312.396 134.968C312.396 132.568 310.636 130.808 308.188 130.808C305.724 130.808 303.964 132.568 303.964 134.968C303.964 137.368 305.724 139.128 308.188 139.128ZM308.188 137.432C306.844 137.432 305.948 136.424 305.948 134.968C305.948 133.512 306.844 132.504 308.188 132.504C309.516 132.504 310.412 133.512 310.412 134.968C310.412 136.424 309.516 137.432 308.188 137.432ZM315.692 139V134.6C315.692 133.416 316.46 132.552 317.564 132.552C318.572 132.552 319.244 133.32 319.244 134.424V139H321.212V134.008C321.212 132.12 320.028 130.808 318.204 130.808C317.052 130.808 316.14 131.304 315.692 132.184V130.936H313.724V139H315.692ZM323.7 130.936H322.116V132.584H323.7V136.184C323.7 137.976 324.852 139 326.612 139H327.908V137.224H326.836C326.1 137.224 325.668 136.808 325.668 135.992V132.584H327.908V130.936H325.668V128.504H323.7V130.936ZM334.137 130.936H333.193C332.153 130.936 331.529 131.336 331.129 132.36V130.936H329.161V139H331.129V135.192C331.129 133.656 331.625 132.584 332.873 132.584H334.137V130.936ZM338.766 139.128C341.214 139.128 342.974 137.368 342.974 134.968C342.974 132.568 341.214 130.808 338.766 130.808C336.302 130.808 334.542 132.568 334.542 134.968C334.542 137.368 336.302 139.128 338.766 139.128ZM338.766 137.432C337.422 137.432 336.526 136.424 336.526 134.968C336.526 133.512 337.422 132.504 338.766 132.504C340.094 132.504 340.99 133.512 340.99 134.968C340.99 136.424 340.094 137.432 338.766 137.432ZM346.366 139V127.48H344.414V139H346.366Z" fill="#F8FAFF"/>
<rect x="403" y="0.5" width="180" height="180" rx="15.5" fill="#292929" stroke="url(#paint2_linear_1726_45523)"/>
<path d="M403.5 15.37C403.5 7.43367 409.934 1 417.87 1H494.5V10.63C494.5 18.5663 488.066 25 480.13 25H403.5V15.37Z" fill="#253F35"/>
<path d="M418.262 19V9.2H416.806V19H418.262ZM421.707 19V11.468L426.439 19H428.049V9.2H426.593V16.746L421.875 9.2H420.251V19H421.707ZM434.38 19.112C436.648 19.112 438.398 17.768 438.608 15.85H437.138C436.984 16.998 435.822 17.824 434.366 17.824C432.462 17.824 431.09 16.522 431.09 14.1C431.09 11.678 432.462 10.376 434.366 10.376C435.794 10.376 436.942 11.202 437.11 12.35H438.636C438.37 10.432 436.606 9.088 434.38 9.088C431.888 9.088 429.592 10.74 429.592 14.1C429.592 17.46 431.86 19.112 434.38 19.112ZM446.291 19V17.712H441.517V9.2H440.061V19H446.291ZM450.632 19.112C452.886 19.112 454.398 17.81 454.398 15.57V9.2H452.998V15.612C452.998 17.012 452.046 17.81 450.632 17.81C449.232 17.81 448.28 17.012 448.28 15.612V9.2H446.88V15.57C446.88 17.81 448.392 19.112 450.632 19.112ZM459.218 19C461.948 19 464.16 17.292 464.16 14.1C464.16 10.908 461.948 9.2 459.218 9.2H456.208V19H459.218ZM457.664 10.488H459.134C460.954 10.488 462.662 11.51 462.662 14.1C462.662 16.69 460.954 17.712 459.134 17.712H457.664V10.488ZM472.136 19V17.712H467.152V14.59H471.058V13.302H467.152V10.488H471.982V9.2H465.696V19H472.136ZM476.704 19C479.434 19 481.646 17.292 481.646 14.1C481.646 10.908 479.434 9.2 476.704 9.2H473.694V19H476.704ZM475.15 10.488H476.62C478.44 10.488 480.148 11.51 480.148 14.1C480.148 16.69 478.44 17.712 476.62 17.712H475.15V10.488Z" fill="#13B272"/>
<rect x="457" y="39" width="72" height="72" rx="36" fill="#113B46"/>
<path d="M489.7 81C489.233 81 488.833 80.8333 488.5 80.5C488.167 80.1667 488 79.7667 488 79.3V78.2C488 77.8667 488.117 77.5833 488.35 77.35C488.583 77.1167 488.867 77 489.2 77C489.533 77 489.817 77.1167 490.05 77.35C490.283 77.5833 490.4 77.8667 490.4 78.2V78.6H495.6V75.95H489.45C489.05 75.95 488.708 75.8083 488.425 75.525C488.142 75.2417 488 74.9 488 74.5V70.7C488 70.2333 488.167 69.8333 488.5 69.5C488.833 69.1667 489.233 69 489.7 69H496.3C496.767 69 497.167 69.1667 497.5 69.5C497.833 69.8333 498 70.2333 498 70.7V71.8C498 72.1333 497.883 72.4167 497.65 72.65C497.417 72.8833 497.133 73 496.8 73C496.467 73 496.183 72.8833 495.95 72.65C495.717 72.4167 495.6 72.1333 495.6 71.8V71.4H490.4V74.05H496.55C496.95 74.05 497.292 74.1917 497.575 74.475C497.858 74.7583 498 75.1 498 75.5V79.3C498 79.7667 497.833 80.1667 497.5 80.5C497.167 80.8333 496.767 81 496.3 81H489.7ZM502.7 81C502.233 81 501.833 80.8333 501.5 80.5C501.167 80.1667 501 79.7667 501 79.3V78.2C501 77.8667 501.117 77.5833 501.35 77.35C501.583 77.1167 501.867 77 502.2 77C502.533 77 502.817 77.1167 503.05 77.35C503.283 77.5833 503.4 77.8667 503.4 78.2V78.6H508.6V75.95H502.45C502.05 75.95 501.708 75.8083 501.425 75.525C501.142 75.2417 501 74.9 501 74.5V70.7C501 70.2333 501.167 69.8333 501.5 69.5C501.833 69.1667 502.233 69 502.7 69H509.3C509.767 69 510.167 69.1667 510.5 69.5C510.833 69.8333 511 70.2333 511 70.7V71.8C511 72.1333 510.883 72.4167 510.65 72.65C510.417 72.8833 510.133 73 509.8 73C509.467 73 509.183 72.8833 508.95 72.65C508.717 72.4167 508.6 72.1333 508.6 71.8V71.4H503.4V74.05H509.55C509.95 74.05 510.292 74.1917 510.575 74.475C510.858 74.7583 511 75.1 511 75.5V79.3C511 79.7667 510.833 80.1667 510.5 80.5C510.167 80.8333 509.767 81 509.3 81H502.7ZM476.7 81C476.2 81 475.792 80.8417 475.475 80.525C475.158 80.2083 475 79.8 475 79.3V70.7C475 70.2 475.158 69.7917 475.475 69.475C475.792 69.1583 476.2 69 476.7 69H483.3C483.8 69 484.208 69.1583 484.525 69.475C484.842 69.7917 485 70.2 485 70.7V71.8C485 72.1333 484.883 72.4167 484.65 72.65C484.417 72.8833 484.133 73 483.8 73C483.467 73 483.183 72.8833 482.95 72.65C482.717 72.4167 482.6 72.1333 482.6 71.8V71.4H477.4V78.6H482.6V78.2C482.6 77.8667 482.717 77.5833 482.95 77.35C483.183 77.1167 483.467 77 483.8 77C484.133 77 484.417 77.1167 484.65 77.35C484.883 77.5833 485 77.8667 485 78.2V79.3C485 79.8 484.842 80.2083 484.525 80.525C484.208 80.8417 483.8 81 483.3 81H476.7Z" fill="#01D2FC"/>
<path d="M438.761 139.128C441.513 139.128 443.561 137.544 443.785 135.224H441.673C441.481 136.44 440.297 137.288 438.761 137.288C436.809 137.288 435.337 135.944 435.337 133.4C435.337 130.856 436.809 129.496 438.761 129.496C440.265 129.496 441.449 130.344 441.609 131.576H443.817C443.513 129.256 441.465 127.672 438.761 127.672C435.833 127.672 433.209 129.592 433.209 133.4C433.209 137.208 435.785 139.128 438.761 139.128ZM450.564 130.936V135.336C450.564 136.52 449.796 137.384 448.692 137.384C447.7 137.384 447.012 136.616 447.012 135.512V130.936H445.06V135.928C445.06 137.816 446.244 139.128 448.052 139.128C449.204 139.128 450.116 138.632 450.564 137.752V139H452.532V130.936H450.564ZM457.206 139.128C459.094 139.128 460.326 138.136 460.326 136.616C460.326 132.968 455.846 134.888 455.846 133.144C455.846 132.6 456.31 132.28 457.014 132.28C457.638 132.28 458.326 132.664 458.438 133.416H460.23C460.15 131.848 458.854 130.808 456.966 130.808C455.302 130.808 454.07 131.8 454.07 133.208C454.07 136.616 458.486 134.904 458.486 136.696C458.486 137.176 457.974 137.56 457.206 137.56C456.326 137.56 455.734 137.08 455.654 136.312H453.862C453.958 138.04 455.254 139.128 457.206 139.128ZM462.583 130.936H460.999V132.584H462.583V136.184C462.583 137.976 463.735 139 465.495 139H466.791V137.224H465.719C464.983 137.224 464.551 136.808 464.551 135.992V132.584H466.791V130.936H464.551V128.504H462.583V130.936ZM471.68 139.128C474.128 139.128 475.888 137.368 475.888 134.968C475.888 132.568 474.128 130.808 471.68 130.808C469.216 130.808 467.456 132.568 467.456 134.968C467.456 137.368 469.216 139.128 471.68 139.128ZM471.68 137.432C470.336 137.432 469.44 136.424 469.44 134.968C469.44 133.512 470.336 132.504 471.68 132.504C473.008 132.504 473.904 133.512 473.904 134.968C473.904 136.424 473.008 137.432 471.68 137.432ZM479.184 139V134.376C479.184 133.24 479.84 132.488 480.88 132.488C481.824 132.488 482.416 133.24 482.416 134.376V139H484.368V134.376C484.368 133.24 485.024 132.488 486.08 132.488C487.024 132.488 487.616 133.24 487.616 134.376V139H489.568V133.784C489.568 132.072 488.448 130.808 486.704 130.808C485.424 130.808 484.4 131.512 484.032 132.344C483.68 131.352 482.8 130.808 481.52 130.808C480.384 130.808 479.584 131.384 479.184 132.2V130.936H477.216V139H479.184ZM498.697 139.128C501.161 139.128 502.873 137.864 502.873 135.784C502.873 131.416 496.777 133.272 496.777 130.792C496.777 130.008 497.465 129.496 498.569 129.496C499.753 129.496 500.521 130.152 500.617 131.128H502.633C502.537 129.032 500.937 127.672 498.569 127.672C496.297 127.672 494.713 128.952 494.713 130.792C494.713 135.08 500.729 133.416 500.729 135.816C500.729 136.808 499.897 137.288 498.697 137.288C497.353 137.288 496.521 136.488 496.409 135.24H494.377C494.489 137.592 496.153 139.128 498.697 139.128ZM507.864 139.128C509.944 139.128 511.512 137.864 511.768 136.104H509.784C509.592 136.904 508.872 137.432 507.944 137.432C506.568 137.432 505.816 136.376 505.816 134.968C505.816 133.56 506.552 132.504 507.912 132.504C508.84 132.504 509.624 133.08 509.768 133.88H511.72C511.544 132.024 509.896 130.808 507.864 130.808C505.352 130.808 503.768 132.664 503.768 134.968C503.768 137.272 505.352 139.128 507.864 139.128ZM518.004 130.936H517.06C516.02 130.936 515.396 131.336 514.996 132.36V130.936H513.028V139H514.996V135.192C514.996 133.656 515.492 132.584 516.74 132.584H518.004V130.936ZM519.042 129.672H521.218V127.432H519.042V129.672ZM521.106 139V130.936H519.138V139H521.106ZM524.936 142.264V138.12C525.384 138.744 526.248 139.128 527.224 139.128C529.592 139.128 531.112 137.432 531.112 134.968C531.112 132.504 529.688 130.808 527.368 130.808C526.296 130.808 525.416 131.256 524.936 131.944V130.936H522.984V142.264H524.936ZM527 137.432C525.672 137.432 524.808 136.456 524.808 134.968C524.808 133.48 525.672 132.504 527 132.504C528.296 132.504 529.16 133.48 529.16 134.968C529.16 136.456 528.296 137.432 527 137.432ZM533.286 130.936H531.702V132.584H533.286V136.184C533.286 137.976 534.438 139 536.198 139H537.494V137.224H536.422C535.686 137.224 535.254 136.808 535.254 135.992V132.584H537.494V130.936H535.254V128.504H533.286V130.936ZM546.327 127.416C546.946 127.416 547.495 127.512 547.975 127.704C548.455 127.896 548.834 128.179 549.111 128.552C549.389 128.915 549.527 129.363 549.527 129.896C549.527 130.632 549.309 131.251 548.871 131.752C548.434 132.253 547.89 132.691 547.239 133.064L549.463 135.224C549.677 134.861 549.863 134.483 550.023 134.088C550.183 133.683 550.317 133.277 550.423 132.872H552.903C552.743 133.469 552.509 134.109 552.199 134.792C551.89 135.475 551.495 136.115 551.015 136.712L553.367 139H550.423L549.527 138.12C549.293 138.28 549.047 138.424 548.791 138.552C548.535 138.68 548.269 138.792 547.991 138.888C547.714 138.973 547.421 139.037 547.111 139.08C546.802 139.133 546.482 139.16 546.151 139.16C545.287 139.16 544.546 139.027 543.927 138.76C543.309 138.483 542.834 138.099 542.503 137.608C542.173 137.117 542.007 136.552 542.007 135.912C542.007 135.368 542.087 134.904 542.247 134.52C542.418 134.125 542.658 133.784 542.967 133.496C543.287 133.197 543.666 132.925 544.103 132.68C543.826 132.36 543.602 132.061 543.431 131.784C543.271 131.496 543.154 131.213 543.079 130.936C543.015 130.659 542.983 130.365 542.983 130.056C542.983 129.512 543.122 129.043 543.399 128.648C543.687 128.253 544.082 127.949 544.583 127.736C545.095 127.523 545.677 127.416 546.327 127.416ZM545.495 134.104C545.293 134.253 545.117 134.408 544.967 134.568C544.829 134.728 544.717 134.899 544.631 135.08C544.557 135.261 544.519 135.464 544.519 135.688C544.519 136.147 544.69 136.509 545.031 136.776C545.373 137.032 545.799 137.16 546.311 137.16C546.653 137.16 546.973 137.117 547.271 137.032C547.57 136.947 547.842 136.829 548.087 136.68L545.495 134.104ZM546.311 129.256C546.045 129.256 545.789 129.325 545.543 129.464C545.309 129.592 545.191 129.843 545.191 130.216C545.191 130.483 545.255 130.739 545.383 130.984C545.522 131.229 545.703 131.48 545.927 131.736C546.375 131.491 546.717 131.245 546.951 131C547.197 130.755 547.319 130.472 547.319 130.152C547.319 129.832 547.213 129.603 546.999 129.464C546.786 129.325 546.557 129.256 546.311 129.256ZM483.941 158.128C486.693 158.128 488.741 156.544 488.965 154.224H486.852C486.661 155.44 485.477 156.288 483.941 156.288C481.989 156.288 480.517 154.944 480.517 152.4C480.517 149.856 481.989 148.496 483.941 148.496C485.445 148.496 486.628 149.344 486.789 150.576H488.997C488.693 148.256 486.645 146.672 483.941 146.672C481.013 146.672 478.389 148.592 478.389 152.4C478.389 156.208 480.965 158.128 483.941 158.128ZM494.19 158.128C496.654 158.128 498.366 156.864 498.366 154.784C498.366 150.416 492.27 152.272 492.27 149.792C492.27 149.008 492.958 148.496 494.062 148.496C495.246 148.496 496.014 149.152 496.11 150.128H498.126C498.03 148.032 496.43 146.672 494.062 146.672C491.789 146.672 490.206 147.952 490.206 149.792C490.206 154.08 496.222 152.416 496.222 154.816C496.222 155.808 495.39 156.288 494.19 156.288C492.846 156.288 492.014 155.488 491.902 154.24H489.87C489.982 156.592 491.646 158.128 494.19 158.128ZM503.565 158.128C506.029 158.128 507.741 156.864 507.741 154.784C507.741 150.416 501.645 152.272 501.645 149.792C501.645 149.008 502.333 148.496 503.437 148.496C504.621 148.496 505.389 149.152 505.485 150.128H507.501C507.405 148.032 505.805 146.672 503.437 146.672C501.164 146.672 499.581 147.952 499.581 149.792C499.581 154.08 505.597 152.416 505.597 154.816C505.597 155.808 504.765 156.288 503.565 156.288C502.221 156.288 501.389 155.488 501.277 154.24H499.245C499.357 156.592 501.021 158.128 503.565 158.128Z" fill="#F8FAFF"/>
<defs>
<linearGradient id="paint0_linear_1726_45523" x1="91" y1="0" x2="91" y2="181" gradientUnits="userSpaceOnUse">
<stop stop-color="#13B272"/>
<stop offset="1" stop-color="#13B272" stop-opacity="0"/>
</linearGradient>
<linearGradient id="paint1_linear_1726_45523" x1="292" y1="0" x2="292" y2="181" gradientUnits="userSpaceOnUse">
<stop stop-color="#13B272"/>
<stop offset="1" stop-color="#13B272" stop-opacity="0"/>
</linearGradient>
<linearGradient id="paint2_linear_1726_45523" x1="493" y1="0" x2="493" y2="181" gradientUnits="userSpaceOnUse">
<stop stop-color="#13B272"/>
<stop offset="1" stop-color="#13B272" stop-opacity="0"/>
</linearGradient>
</defs>
</svg>
